<?xml version="1.0" standalone="no"?> 
<!DOCTYPE svg PUBLIC "-//W3C//DTD SVG 1.1//EN" "http://www.w3.org/Graphics/SVG/1.1/DTD/svg11.dtd" >
<svg xmlns="http://www.w3.org/2000/svg">
<defs>
  <font id="eventob" horiz-adv-x="500">
    <font-face font-family="eventob"
      units-per-em="500" ascent="500"
      descent="0" />
    <missing-glyph horiz-adv-x="0" />
    <glyph glyph-name="align-center"
      unicode="&#xE001;"
      horiz-adv-x="500" d=" M93.75 328.125H406.25C415.625 328.125 421.875 334.375 421.875 343.75S415.625 359.375 406.25 359.375H93.75C84.375 359.375 78.125 353.125 78.125 343.75S84.375 328.125 93.75 328.125z M156.25 265.625C146.875 265.625 140.625 259.375 140.625 250S146.875 234.375 156.25 234.375H343.75C353.125 234.375 359.375 240.625 359.375 250S353.125 265.625 343.75 265.625H156.25z M406.25 171.875H93.75C84.375 171.875 78.125 165.625 78.125 156.25S84.375 140.625 93.75 140.625H406.25C415.625 140.625 421.875 146.875 421.875 156.25S415.625 171.875 406.25 171.875z" />
    <glyph glyph-name="align-left"
      unicode="&#xE002;"
      horiz-adv-x="500" d=" M406.25 328.125H93.75C84.375 328.125 78.125 334.375 78.125 343.75S84.375 359.375 93.75 359.375H406.25C415.625 359.375 421.875 353.125 421.875 343.75S415.625 328.125 406.25 328.125zM296.875 250C296.875 259.375 290.625 265.625 281.25 265.625H93.75C84.375 265.625 78.125 259.375 78.125 250S84.375 234.375 93.75 234.375H281.25C290.625 234.375 296.875 240.625 296.875 250zM421.875 156.25C421.875 165.625 415.625 171.875 406.25 171.875H93.75C84.375 171.875 78.125 165.625 78.125 156.25S84.375 140.625 93.75 140.625H406.25C415.625 140.625 421.875 146.875 421.875 156.25z" />
    <glyph glyph-name="align-right"
      unicode="&#xE003;"
      horiz-adv-x="500" d=" M93.75 171.875H406.25C415.625 171.875 421.875 165.625 421.875 156.25S415.625 140.625 406.25 140.625H93.75C84.375 140.625 78.125 146.875 78.125 156.25S84.375 171.875 93.75 171.875zM203.125 250C203.125 240.625 209.375 234.375 218.75 234.375H406.25C415.625 234.375 421.875 240.625 421.875 250S415.625 265.625 406.25 265.625H218.75C209.375 265.625 203.125 259.375 203.125 250zM78.125 343.75C78.125 334.375 84.375 328.125 93.75 328.125H406.25C415.625 328.125 421.875 334.375 421.875 343.75S415.625 359.375 406.25 359.375H93.75C84.375 359.375 78.125 353.125 78.125 343.75z" />
    <glyph glyph-name="announcement-o"
      unicode="&#xE004;"
      horiz-adv-x="500" d=" M421.875 359.375H395.3125L296.875 457.8125C295.3125 481.25 275 500 250 500C226.5625 500 206.25 482.8125 203.125 459.375L104.6875 359.375H78.125C34.375 359.375 0 326.5625 0 285.9375V71.875C0 32.8125 34.375 0 78.125 0H421.875C465.625 0 500 32.8125 500 73.4375V285.9375C500 326.5625 465.625 359.375 421.875 359.375zM214.0625 425C223.4375 414.0625 235.9375 406.25 251.5625000000001 406.25C265.625 406.25 279.6875000000001 412.5 287.5000000000001 423.4375L351.5625 359.375H148.4375L214.0625 425zM468.75 71.875C468.75 48.4375 448.4375 29.6875000000001 421.875 29.6875000000001H78.125C51.5625 29.6875000000001 31.25 48.4375 31.25 71.875V285.9375C31.25 309.375 51.5625 328.125 78.125 328.125H421.875C448.4375 328.125 468.75 309.375 468.75 285.9375V71.875zM359.375 218.75C359.375 209.375 353.125 203.125 343.75 203.125H156.25C146.875 203.125 140.625 209.375 140.625 218.75S146.875 234.375 156.25 234.375H343.75C353.125 234.375 359.375 226.5625 359.375 218.75zM359.375 125C359.375 115.625 353.125 109.375 343.75 109.375H156.25C146.875 109.375 140.625 115.625 140.625 125S146.875 140.625 156.25 140.625H343.75C353.125 140.625 359.375 132.8125 359.375 125z" />
    <glyph glyph-name="announcement"
      unicode="&#xE005;"
      horiz-adv-x="500" d=" M421.9 359.4H395.3L296.9 457.8C295.3 481.2 275 500 250 500C226.6 500 206.2 482.8 203.1 459.4L104.7 359.4H78.1C34.3 359.4 0 326.6 0 286V71.9C0 32.8 34.4 0 78.1 0H421.9C465.6 0 500 32.8 500 73.4V285.9C500 326.6 465.6 359.4 421.9 359.4zM214.1 425C223.5 414.1 236 406.2 251.6 406.2C265.7 406.2 279.7 412.4 287.5 423.4L351.6 359.3H148.5L214.1 425zM343.8 109.4H156.3C146.9 109.4 140.7 115.6 140.7 125S146.9 140.6 156.3 140.6H343.8C353.2 140.6 359.4 134.4 359.4 125S353.1 109.4 343.8 109.4zM343.8 203.1H156.3C146.9 203.1 140.7 209.3000000000001 140.7 218.7000000000001S146.9 234.3000000000001 156.3 234.3000000000001H343.8C353.2 234.3000000000001 359.4 228.1 359.4 218.7000000000001S353.1 203.1 343.8 203.1z" />
    <glyph glyph-name="arrow-down"
      unicode="&#xE006;"
      horiz-adv-x="500" d=" M250 343.75C259.375 343.75 265.625 337.5 265.625 328.125V207.8125L317.1875 259.375C323.4375 265.625 332.8125 265.625 339.0625 259.375C342.1875 256.25 343.75 251.5625000000001 343.75 248.4375000000001C343.75 243.75 342.1875 240.6250000000001 339.0625 237.5000000000001L262.5 160.9375000000001C259.375 157.8125000000001 256.25 156.2500000000001 251.5625 156.2500000000001H248.4375C243.75 156.2500000000001 240.625 157.8125000000001 237.5 160.9375000000001L160.9375 239.0625000000001C154.6875 245.3125000000001 154.6875 254.6875000000001 160.9375 260.9375000000001C167.1875 267.1875000000001 176.5625 267.1875000000001 182.8125 260.9375000000001L234.375 209.3750000000001V328.125C234.375 337.5 240.625 343.75 250 343.75z" />
    <glyph glyph-name="arrow-left"
      unicode="&#xE007;"
      horiz-adv-x="500" d=" M343.75 250C343.75 240.625 337.5 234.375 328.125 234.375H207.8125L259.375 182.8125C265.625 176.5625 265.625 167.1875 259.375 160.9375C256.2500000000001 157.8125 251.5625000000001 156.25 248.4375000000001 156.25C243.7500000000001 156.25 240.6250000000001 157.8125 237.5000000000001 160.9375L160.9375 237.5000000000001C157.8125000000001 240.6250000000001 156.25 243.75 156.25 248.4375000000001V251.5625000000001C156.25 256.25 157.8125 259.375 160.9375 262.5L239.0625000000001 339.0625C245.3125000000001 345.3125 254.6875000000001 345.3125 260.9375000000001 339.0625C267.1875 332.8125 267.1875 323.4375 260.9375000000001 317.1875L207.8125 265.625H328.125C337.5 265.625 343.75 259.375 343.75 250z" />
    <glyph glyph-name="arrow-long-down"
      unicode="&#xE008;"
      horiz-adv-x="500" d=" M250 437.5C259.375 437.5 265.625 429.6875 265.625 421.875V125L317.1875 179.6875C323.4375 185.9375 332.8125 185.9375 339.0625 179.6875C342.1875 176.5625 343.75 171.875 343.75 167.1875C343.75 162.5 342.1875 157.8125 339.0625 154.6875L262.5 70.3125C259.375 67.1875 254.6875 60.9375 251.5625 60.9375H248.4375C243.75 60.9375 240.625 67.1874999999999 237.5 70.3125L160.9375 156.25C154.6875 162.5 154.6875 173.4375 160.9375 178.125C167.1875 184.375 176.5625 184.375 182.8125 178.125L234.375 125V421.875C234.375 429.6875 240.625 437.5 250 437.5z" />
    <glyph glyph-name="arrow-long-left"
      unicode="&#xE009;"
      horiz-adv-x="500" d=" M437.5 250C437.5 240.625 429.6875 234.375 421.875 234.375H125L179.6875 182.8125C185.9375 176.5625 185.9375 167.1875 179.6875 160.9375C176.5625 157.8125 171.875 156.25 168.75 156.25C164.0625 156.25 159.375 157.8125 156.25 160.9375L71.875 237.5000000000001C68.75 240.625 62.5 243.75 62.5 248.4375V251.5625C62.5 256.25 68.75 259.375 71.875 262.5L156.25 339.0625C162.5 345.3125 173.4375 345.3125 178.125 339.0625C184.375 332.8125 184.375 323.4375 178.125 317.1875L125 265.625H421.875C429.6875 265.625 437.5 259.375 437.5 250z" />
    <glyph glyph-name="arrow-long-right"
      unicode="&#xE00A;"
      horiz-adv-x="500" d=" M62.5 250C62.5 259.375 70.3125 265.625 78.125 265.625H375L320.3125 317.1875C314.0625 323.4375 314.0625 332.8125 320.3125 339.0625C323.4375 342.1875 328.125 343.75 332.8125 343.75C337.5 343.75 342.1875000000001 342.1875 345.3125 339.0625L429.6875 262.5C432.8125 259.375 439.0625 254.6875 439.0625 251.5625000000001V248.4375000000001C439.0625 243.75 432.8125000000001 240.6250000000001 429.6875 237.5000000000001L343.75 160.9375C337.5 154.6875000000001 326.5625 154.6875000000001 321.875 160.9375C315.6250000000001 167.1875 315.6250000000001 176.5625 321.875 182.8125L375 234.375H78.125C70.3125 234.375 62.5 240.625 62.5 250z" />
    <glyph glyph-name="arrow-long-up"
      unicode="&#xE00B;"
      horiz-adv-x="500" d=" M250 62.5C240.625 62.5 234.375 70.3125 234.375 78.125V375L182.8125 320.3125C176.5625 314.0625 167.1875 314.0625 160.9375 320.3125C157.8125 323.4375 156.25 328.125 156.25 331.25C156.25 335.9375 157.8125 340.625 160.9375 343.75L237.5000000000001 428.125C240.625 431.25 243.75 437.5 248.4375 437.5H251.5625000000001C256.2500000000001 437.5 259.375 431.25 262.5 428.125L339.0625000000001 343.75C345.3125 337.5 345.3125 326.5625 339.0625000000001 321.875C332.8125000000001 315.625 323.4375000000001 315.625 317.1875000000001 321.875L265.625 375V78.125C265.625 70.3125 259.375 62.5 250 62.5z" />
    <glyph glyph-name="arrow-right"
      unicode="&#xE00C;"
      horiz-adv-x="500" d=" M156.25 250C156.25 259.375 162.5 265.625 171.875 265.625H292.1875L240.625 317.1875C234.375 323.4375 234.375 332.8125 240.625 339.0625C243.75 342.1875 248.4375 343.75 251.5625 343.75C256.25 343.75 259.375 342.1875 262.5 339.0625L339.0625 262.5C342.1875 259.375 343.75 256.25 343.75 251.5625000000001V248.4375000000001C343.75 243.75 342.1875 240.6250000000001 339.0625 237.5000000000001L260.9375 160.9375000000001C254.6875 154.6875000000001 245.3125 154.6875000000001 239.0624999999999 160.9375000000001C232.8124999999999 167.1875000000001 232.8124999999999 176.5625000000001 239.0624999999999 182.8125000000001L290.6249999999999 234.3750000000001H171.875C162.5 234.375 156.25 240.625 156.25 250z" />
    <glyph glyph-name="arrow-up"
      unicode="&#xE00D;"
      horiz-adv-x="500" d=" M250 156.25C240.625 156.25 234.375 162.5 234.375 171.875V292.1875L182.8125 240.625C176.5625 234.375 167.1875 234.375 160.9375 240.625C157.8125 243.75 156.25 248.4375 156.25 251.5625C156.25 256.25 157.8125 259.375 160.9375 262.5L237.5 339.0625C240.625 342.1875 243.75 343.75 248.4375 343.75H251.5625C256.25 343.75 259.375 342.1875 262.5 339.0625L339.0625 260.9375C345.3124999999999 254.6875 345.3124999999999 245.3125 339.0625 239.0625C332.8125 232.8125 323.4375 232.8125 317.1875 239.0625L265.625 292.1875V171.875C265.625 162.5 259.375 156.25 250 156.25z" />
    <glyph glyph-name="arrows-cross"
      unicode="&#xE00E;"
      horiz-adv-x="500" d=" M500 250L500 246.875C500 242.1875 498.4375 239.0625 495.3125 235.9375L417.1875 159.3750000000001C410.9375 153.1250000000001 401.5625 153.1250000000001 395.3125 159.3750000000001C389.0625000000001 165.625 389.0625000000001 175.0000000000001 395.3125 181.25L446.875 232.8125000000001L265.625 234.375V51.5625L317.1875 103.125C323.4375 109.375 332.8125 109.375 339.0625 103.125C342.1875 100.0000000000001 343.75 95.3125 343.75 92.1875000000001C343.75 87.5 342.1875 84.3750000000001 339.0625 81.2500000000001L262.5 4.6875000000001C259.375 1.5625000000001 256.25 1e-13 251.5625 1e-13H248.4375C243.75 1e-13 240.625 1.5625000000001 237.5 4.6875000000001L160.9375 82.8125000000001C154.6875 89.0625000000001 154.6875 98.4375000000001 160.9375 104.6875000000001C167.1875 110.9375 176.5625 110.9375 182.8125 104.6875000000001L234.375 53.1250000000001V234.375V234.375C234.375 234.375 234.375 234.375 234.375 234.375L51.5625 234.375L103.125 182.8125C109.375 176.5625 109.375 167.1875 103.125 160.9375C100 157.8125 96.875 156.25 92.1875 156.25C87.5 156.25 84.375 157.8125 81.25 160.9375L4.6875 237.5000000000001C1.5625 242.1875 0 245.3125 0 250L0 253.125C0 257.8125 1.5625 260.9375 4.6875 264.0625L82.8125 340.625C89.0625 346.875 98.4375 346.875 104.6875 340.625C110.9375 334.375 110.9375 325 104.6875 318.75L53.125 267.1875L234.375 265.625V448.4375L182.8125 396.875C176.5625 390.625 167.1875 390.625 160.9375 396.875C157.8125 398.4375 156.25 403.125 156.25 407.8125C156.25 412.5 157.8125 415.625 160.9375 418.75L237.5000000000001 495.3125C240.625 498.4375 243.75 500 248.4375 500H251.5625000000001C256.2500000000001 500 259.375 498.4375 262.5 495.3125L339.0625000000001 417.1875C345.3125 410.9375 345.3125 401.5625 339.0625000000001 395.3125C332.8125000000001 389.0625 323.4375000000001 389.0625 317.1875000000001 395.3125L265.625 448.4375V265.625C265.625 265.625 265.625 265.625 265.625 265.625L448.4375 265.625L396.875 317.1875C390.625 323.4375 390.625 332.8125 396.875 339.0625C400 342.1875 404.6875 343.75 407.8125 343.75C412.5 343.75 415.625 342.1875 418.75 339.0625L495.3124999999999 262.5C498.4375 257.8125 500 254.6875 500 250z" />
    <glyph glyph-name="arrows-horizontal"
      unicode="&#xE00F;"
      horiz-adv-x="500" d=" M500 250L500 246.875C500 242.1875 498.4375 239.0625 495.3125 235.9375L417.1875 159.3750000000001C410.9375 153.1250000000001 401.5625 153.1250000000001 395.3125 159.3750000000001C389.0625000000001 165.625 389.0625000000001 175.0000000000001 395.3125 181.25L446.875 232.8125000000001L51.5625 235.9375L103.125 184.375C109.375 178.1250000000001 109.375 168.75 103.125 162.5000000000001C100 159.3750000000001 95.3125 157.8125 92.1875 157.8125C87.5 157.8125 84.375 159.3750000000001 81.25 162.5000000000001L4.6875 239.0625000000001C1.5625 242.1875 0 245.3125 0 250L0 253.125C0 257.8125 1.5625 260.9375 4.6875 264.0625L82.8125 340.625C89.0625 346.875 98.4375 346.875 104.6875 340.625C110.9375 334.375 110.9375 325 104.6875 318.75L53.125 265.625L448.4375 264.0625L396.875 315.625C390.625 321.875 390.625 331.25 396.875 337.5C400 340.625 404.6875 342.1875 407.8125 342.1875C412.5 342.1875 415.625 340.625 418.75 337.5L495.3124999999999 260.9375C498.4375 257.8125 500 254.6875 500 250z" />
    <glyph glyph-name="arrows-vertical"
      unicode="&#xE010;"
      horiz-adv-x="500" d=" M250 0L246.875 0C242.1875 0 239.0625 1.5625 235.9375000000001 4.6875L159.375 82.8125C153.125 89.0625 153.125 98.4375 159.375 104.6875C165.625 110.9374999999999 175 110.9374999999999 181.25 104.6875L232.8125000000001 53.125L234.3750000000001 448.4375L182.8125000000001 396.875C176.5625 390.625 167.1875000000001 390.625 160.9375 396.875C157.8125000000001 400 156.25 404.6875 156.25 407.8125C156.25 412.5 157.8125 415.625 160.9375 418.75L237.5000000000001 495.3125C242.1875 498.4375 245.3125 500 250 500L253.125 500C257.8125 500 260.9375 498.4375 264.0625 495.3125L340.625 417.1875C346.875 410.9375 346.875 401.5625 340.625 395.3125C334.375 389.0625 325 389.0625 318.75 395.3125L265.625 446.875L264.0625 51.5625L315.625 103.125C321.875 109.375 331.25 109.375 337.5 103.125C340.625 100.0000000000001 342.1875 95.3125 342.1875 92.1875000000001C342.1875 87.5 340.625 84.3750000000001 337.5 81.2500000000001L260.9375 4.6875000000001C257.8125 1.5625 254.6875 0 250 0z" />
    <glyph glyph-name="asterisk-fat"
      unicode="&#xE011;"
      horiz-adv-x="500" d=" M282.8125 279.6875C309.375 292.1875 334.3750000000001 303.125 357.8125000000001 315.625C381.2500000000001 328.125 400 335.9375 414.0625000000001 342.1875C428.1250000000001 348.4375 439.0625000000001 350 448.4375000000001 350C462.5 350 475.0000000000001 345.3125 484.3750000000001 335.9375C495.3125000000001 326.5625 500 315.625 500 301.5625C500 293.75 496.875 285.9375 492.1875 276.5625S481.25 262.5 476.5625 260.9375C425 240.625 367.1875 226.5625 306.25 217.1875C317.1875 206.25 331.2500000000001 193.75 348.4375 176.5625C365.6250000000001 159.375 373.4375000000001 150 375 150C381.25 142.1875 389.0625 131.25 400 118.75C410.9375 106.2499999999999 418.75 96.875 421.875 90.6249999999999C426.5625 84.375 428.125 74.9999999999999 428.125 65.6249999999999C428.125 53.1249999999999 423.4375 42.1874999999999 414.0625 32.8124999999999S390.625 15.625 375 15.625C359.375 15.625 342.1875 26.5625 323.4375 50C304.6875 73.4375 279.6875 115.625 250 175C218.75 120.3125 198.4375 84.375 189.0625 67.1874999999999C178.125 49.9999999999999 168.75 35.9374999999999 159.375 28.1249999999999C148.4375 20.3125 137.5 15.625 125 15.625C110.9375 15.625 98.4375 20.3125 87.5 31.25C78.125 40.625 73.4375 51.5625 73.4375 64.0625C73.4375 75 75 82.8125 79.6875 89.0625000000001C117.1875 139.0625000000001 154.6875 181.25 195.3125 217.1875000000001C160.9375 221.8750000000001 131.25 228.125 104.6875 234.3750000000001C78.125 240.6250000000001 50 250.0000000000001 20.3125 262.5000000000001C15.625 265.6250000000001 10.9375 270.3125000000001 6.25 278.1250000000001S0 293.75 0 300C0 314.0625 4.6875 325 15.625 334.375S37.5 348.4375 51.5625 348.4375C60.9375 348.4375 73.4375 345.3125 87.5 340.625C101.5625 334.375 120.3125 326.5625 142.1875 315.625S189.0625 292.1875 218.75 279.6875C214.0625 304.6875 209.375 332.8125 206.25 365.625C203.125 398.4375 201.5625 420.3125 201.5625 431.25C201.5625 445.3125 206.25 457.8125 215.625 468.75C225 479.6875 237.5 484.375 251.5625 484.375C265.625 484.375 278.125 479.6875 287.5 468.75C296.875 457.8125 301.5625 443.75 301.5625 426.5625C301.5625 421.875 301.5625 412.5 300 398.4375S296.875 367.1875 293.75 346.875C289.0625 328.125 285.9375 304.6875 282.8125 279.6875z" />
    <glyph glyph-name="asterisk"
      unicode="&#xE012;"
      horiz-adv-x="500" d=" M489.0625 339.0625L276.5625000000001 235.9375L417.1875000000001 28.125C423.4375 20.3125 420.3125000000001 7.8125 412.5000000000001 3.125C409.375 1.5625 406.25 0 403.125 0C396.8750000000001 0 392.1875 3.125 389.0625000000001 7.8125L251.5625000000001 210.9375L114.0625 7.8125C107.8125 3.125 103.125 0 96.875 0C93.75 0 89.0625 1.5625 87.5 3.125C79.6875 9.3749999999999 78.125 20.3125 82.8125 28.125L223.4375 235.9375L10.9375 339.0625C1.5625 343.75 -1.5625 354.6875 3.125 364.0625C6.25 373.4375 15.625 376.5625 25 371.875L231.25 271.875V481.25C232.8125 492.1875 240.625 500 250 500C259.375 500 267.1875 492.1875 267.1875 481.25V271.875L473.4375 371.875C482.8125000000001 376.5625 492.1875 371.875 496.875 362.5C503.1250000000001 354.6875 498.4375 343.75 489.0625 339.0625z" />
    <glyph glyph-name="backward"
      unicode="&#xE013;"
      horiz-adv-x="500" d=" M343.75 359.375C348.4375 359.375 351.5625 357.8125 354.6875 354.6875C360.9375 348.4375 360.9375 339.0625 354.6875 332.8125L271.875 250L354.6875 167.1875C360.9375 160.9375 360.9375 151.5625 354.6875 145.3125S339.0625 139.0625000000001 332.8125 145.3125L239.0625 239.0625C232.8125 245.3125 232.8125 254.6875 239.0625 260.9375L332.8125 354.6875C335.9375 357.8125 339.0625 359.375 343.75 359.375zM239.0625 354.6875L145.3125 260.9375C139.0625 254.6875 139.0625 245.3125 145.3125 239.0625L239.0625 145.3125C245.3125000000001 139.0625000000001 254.6875 139.0625000000001 260.9375 145.3125S267.1875 160.9375 260.9375 167.1875L178.125 250L260.9375 332.8125C267.1875 339.0625 267.1875 348.4375 260.9375 354.6875C257.8125 357.8125 254.6875 359.375 250 359.375S242.1875 357.8125 239.0625 354.6875z" />
    <glyph glyph-name="badge-info-o"
      unicode="&#xE014;"
      horiz-adv-x="500" d=" M421.875 406.25H393.75L414.0625 375H421.875C448.4375 375 468.75 353.125 468.75 326.5625V107.8125C468.75 81.25 448.4375 62.5 421.875 62.5H78.125C51.5625 62.5 31.25 82.8125 31.25 107.8125V326.5625C31.25 353.125 51.5625 375 78.125 375H85.9375L106.25 406.25H78.125C34.375 406.25 0 370.3125 0 326.5625V107.8125C0 65.625 34.375 31.25 78.125 31.25H421.875C465.625 31.25 500 65.625 500 107.8125V326.5625C500 370.3125 465.625 406.25 421.875 406.25zM110.9375 351.5625C107.8125 356.25 107.8125 362.5 110.9375 367.1875L173.4375 460.9375C178.125 467.1875 187.5 470.3125 193.75 465.625C193.75 465.625 210.9375 435.9375 248.4375 435.9375C248.4375 435.9375 250 435.9375 250 435.9375C250 435.9375 251.5625000000001 435.9375 251.5625000000001 435.9375C282.8125 435.9375 290.625 456.25 303.1250000000001 465.625C310.9375000000001 470.3125 320.3125000000001 468.75 325 460.9375L387.5 367.1875C390.625 362.5 390.625 356.25 387.5 351.5625S381.25 343.75 375 343.75H250H125C118.75 343.75 114.0625 346.875 110.9375 351.5625zM154.6875 375H250H345.3125L307.8125000000001 432.8125C289.0625 421.875 284.375 406.25 253.125 406.25C253.125 406.25 251.5625 406.25 251.5625 406.25C251.5625 406.25 250 406.25 250 406.25C217.1875 406.25 212.5 423.4375 192.1875 432.8125L154.6875 375zM390.625 156.25C390.625 165.625 384.375 171.875 375 171.875H125C115.625 171.875 109.375 165.625 109.375 156.25S115.625 140.625 125 140.625H375C384.375 140.625 390.625 148.4375 390.625 156.25zM375 265.625H125C115.625 265.625 109.375 259.375 109.375 250S115.625 234.375 125 234.375H375C384.375 234.375 390.625 240.625 390.625 250S384.375 265.625 375 265.625z" />
    <glyph glyph-name="badge-info"
      unicode="&#xE015;"
      horiz-adv-x="500" d=" M110.9375 351.5625C114.0625 346.875 118.75 343.75 125 343.75H250H375C381.25 343.75 385.9375 346.875 389.0625 351.5625S392.1875 362.5 389.0625 367.1875L326.5625 460.9375C321.875 468.75 312.5 470.3125 304.6875 465.625C292.1875 457.8125 282.8125 437.5 253.125 437.5C253.125 437.5 251.5625 437.5 251.5625 437.5C251.5625 437.5 250 437.5 250 437.5C212.5 437.5 195.3125 467.1875 195.3125 467.1875C187.5 471.875 178.125 468.75 175 462.5L112.5 368.75C109.375 362.5 107.8125 356.25 110.9375 351.5625zM192.1875 432.8125C212.5 423.4375 217.1875 406.25 250 406.25C250 406.25 251.5625000000001 406.25 251.5625000000001 406.25C251.5625000000001 406.25 253.1250000000001 406.25 253.1250000000001 406.25C285.9375000000001 406.25 289.0625000000001 423.4375 307.8125000000001 432.8125L345.3125 375H250H154.6875L192.1875 432.8125zM421.875 406.25H393.75H381.25L401.5625 376.5625C407.8125 367.1875 407.8125 354.6875 403.125 345.3125C398.4375 335.9375 387.5 329.6875 375 329.6875H125C114.0625 329.6875 103.125 335.9375 96.875 345.3125C92.1875 354.6875 92.1875 367.1875 98.4375 376.5625L118.75 406.25H106.25H85.9375H78.125C34.375 406.25 0 370.3125 0 328.125V109.375C0 65.625 34.375 31.25 78.125 31.25H421.875C465.625 31.25 500 65.625 500 109.375V328.125C500 370.3125 465.625 406.25 421.875 406.25zM375 125H125C115.625 125 109.375 131.25 109.375 140.625S115.625 156.25 125 156.25H375C384.375 156.25 390.625 150 390.625 140.625S384.375 125 375 125zM375 218.75H125C115.625 218.75 109.375 225 109.375 234.375S115.625 250 125 250H375C384.375 250 390.625 243.75 390.625 234.375S384.375 218.75 375 218.75z" />
    <glyph glyph-name="badge-user-details-o"
      unicode="&#xE016;"
      horiz-adv-x="500" d=" M156.25 296.875C176.5625 296.875 192.1875 281.25 192.1875 260.9375S176.5625 225 156.25 225S120.3125 240.625 120.3125 260.9375S135.9375 296.875 156.25 296.875zM79.6875 173.4375C81.25 171.875 82.8125 170.3125000000001 85.9375 170.3125000000001L120.3125 176.5625L112.5 178.1250000000001C109.375 178.1250000000001 106.25 182.8125000000001 106.25 185.9375000000001C106.25 189.0625 110.9375 195.3125000000001 114.0625 193.7500000000001L156.25 187.5H156.25L226.5625 170.3125C229.6875 170.3125 231.25 170.3125 232.8125 173.4375C234.375 175 234.375 178.125 232.8125 179.6875L204.6875 221.875C203.125 225 198.4375 226.5625 195.3125 223.4375C189.0625 220.3125 171.875 210.9375 157.8125 210.9375C157.8125 210.9375 157.8125 210.9375 157.8125 210.9375C157.8125 210.9375 157.8125 210.9375 157.8125 210.9375C140.625 210.9375 118.75 223.4375 118.75 225C115.625 226.5625 110.9375 226.5625 109.375 223.4374999999999L81.25 181.2499999999999C78.125 178.125 78.125 175 79.6875 173.4375zM406.25 218.75C406.25 228.125 400 234.375 390.625 234.375H296.875C287.5 234.375 281.25 228.125 281.25 218.75S287.5 203.125 296.875 203.125H390.625C400 203.125 406.25 210.9375 406.25 218.75zM390.625 296.875H296.875C287.5 296.875 281.25 290.625 281.25 281.25S287.5 265.625 296.875 265.625H390.625C400 265.625 406.25 271.875 406.25 281.25S400 296.875 390.625 296.875zM296.875 140.625C287.5 140.625 281.25 134.375 281.25 125S287.5 109.375 296.875 109.375H359.375C368.75 109.375 375 115.625 375 125S368.75 140.625 359.375 140.625H296.875zM421.875 406.25H393.75L414.0625 375H421.875C448.4375 375 468.75 353.125 468.75 326.5625V107.8125C468.75 81.25 448.4375 62.5 421.875 62.5H78.125C51.5625 62.5 31.25 82.8125 31.25 107.8125V326.5625C31.25 353.125 51.5625 375 78.125 375H85.9375L106.25 406.25H78.125C34.375 406.25 0 370.3125 0 326.5625V107.8125C0 65.625 34.375 31.25 78.125 31.25H421.875C465.625 31.25 500 65.625 500 107.8125V326.5625C500 370.3125 465.625 406.25 421.875 406.25zM218.75 140.625H109.375C100 140.625 93.75 134.375 93.75 125S100 109.375 109.375 109.375H218.75C228.125 109.375 234.375 115.625 234.375 125S228.125 140.625 218.75 140.625zM110.9375 351.5625C107.8125 356.25 107.8125 362.5 110.9375 367.1875L173.4375 460.9375C178.125 467.1875 187.5 470.3125 193.75 465.625C193.75 465.625 210.9375 435.9375 248.4375 435.9375C248.4375 435.9375 250 435.9375 250 435.9375C250 435.9375 251.5625000000001 435.9375 251.5625000000001 435.9375C282.8125 435.9375 290.625 456.25 303.1250000000001 465.625C310.9375000000001 470.3125 320.3125000000001 468.75 325 460.9375L387.5 367.1875C390.625 362.5 390.625 356.25 387.5 351.5625S381.25 343.75 375 343.75H250H125C118.75 343.75 114.0625 346.875 110.9375 351.5625zM154.6875 375H250H345.3125L307.8125000000001 432.8125C289.0625 421.875 284.375 406.25 253.125 406.25C253.125 406.25 251.5625 406.25 251.5625 406.25C251.5625 406.25 250 406.25 250 406.25C217.1875 406.25 212.5 423.4375 192.1875 432.8125L154.6875 375z" />
    <glyph glyph-name="badge-user-details"
      unicode="&#xE017;"
      horiz-adv-x="500" d=" M421.875 406.25H393.75H381.25L401.5625 376.5625C407.8125 367.1875 407.8125 354.6875 403.125 345.3125C398.4375 335.9375 387.5 329.6875 375 329.6875H125C114.0625 329.6875 103.125 335.9375 96.875 345.3125C92.1875 354.6875 92.1875 367.1875 98.4375 376.5625L118.75 406.25H106.25H85.9375H78.125C34.375 406.25 0 370.3125 0 328.125V109.375C0 65.625 34.375 31.25 78.125 31.25H421.875C465.625 31.25 500 65.625 500 109.375V328.125C500 370.3125 465.625 406.25 421.875 406.25zM156.25 296.875C176.5625 296.875 192.1875 281.25 192.1875 260.9375S176.5625 225 156.25 225S120.3125 240.625 120.3125 260.9375S135.9375 296.875 156.25 296.875zM79.6875 173.4375C78.125 175.0000000000001 78.125 178.1250000000001 79.6875 181.25L107.8125 223.4375C109.375 226.5625 114.0625 228.125 117.1875 225.0000000000001C117.1875 225.0000000000001 139.0625 210.9375000000001 156.25 210.9375000000001C156.25 210.9375000000001 156.25 210.9375000000001 156.25 210.9375000000001C156.25 210.9375000000001 156.25 210.9375000000001 156.25 210.9375000000001C170.3125 210.9375000000001 187.5 220.3125000000001 193.75 223.4375000000001C196.875 225.0000000000001 201.5625 225.0000000000001 203.125 221.8750000000001L231.25 179.6875000000001C232.8125 178.1250000000001 232.8125 175.0000000000001 231.25 173.4375000000001C232.8125 171.875 229.6875 171.875 226.5625 171.875L156.25 187.5H156.25L114.0625 193.75C110.9375 193.75 106.25 190.625 106.25 185.9375C106.25 182.8125 107.8125 178.125 112.5 178.125L120.3125 176.5625L85.9375 170.3125C82.8125 168.75 79.6875 170.3125 79.6875 173.4375zM218.75 109.375H109.375C100 109.375 93.75 115.625 93.75 125S100 140.625 109.375 140.625H218.75C228.125 140.625 234.375 134.375 234.375 125S228.125 109.375 218.75 109.375zM359.375 109.375H296.875C287.5 109.375 281.25 115.625 281.25 125S287.5 140.625 296.875 140.625H359.375C368.75 140.625 375 134.375 375 125S368.75 109.375 359.375 109.375zM390.625 203.125H296.875C287.5 203.125 281.25 209.375 281.25 218.75S287.5 234.375 296.875 234.375H390.625C400 234.375 406.25 228.125 406.25 218.75S400 203.125 390.625 203.125zM390.625 265.625H296.875C287.5 265.625 281.25 271.875 281.25 281.25S287.5 296.875 296.875 296.875H390.625C400 296.875 406.25 290.625 406.25 281.25S400 265.625 390.625 265.625zM387.5 367.1875L325 460.9375C320.3125 468.75 310.9375000000001 470.3125 303.1250000000001 465.625C292.1875 457.8125 282.8125 437.5 253.125 437.5C253.125 437.5 251.5625 437.5 251.5625 437.5C251.5625 437.5 250 437.5 250 437.5C212.5 437.5 195.3125 467.1875 195.3125 467.1875C187.5 471.875 178.125 468.75 175 462.5L112.5 368.75C109.375 364.0625 109.375 357.8125 112.5 353.125S118.75 343.75 125 343.75H250H375C381.25 343.75 385.9375 346.875 389.0625 351.5625S390.625 362.5 387.5 367.1875zM250 375H154.6875L193.75 432.8125C212.5 423.4375 217.1875 406.25 250 406.25C250 406.25 251.5625000000001 406.25 251.5625000000001 406.25C251.5625000000001 406.25 253.1250000000001 406.25 253.1250000000001 406.25C285.9375000000001 406.25 289.0625000000001 423.4375 307.8125000000001 432.8125L345.3125 375H250z" />
    <glyph glyph-name="badge-user-o"
      unicode="&#xE018;"
      horiz-adv-x="500" d=" M421.875 406.25H393.75L414.0625 375H421.875C448.4375 375 468.75 353.125 468.75 326.5625V107.8125C468.75 81.25 448.4375 62.5 421.875 62.5H78.125C51.5625 62.5 31.25 82.8125 31.25 107.8125V326.5625C31.25 353.125 51.5625 375 78.125 375H85.9375L106.25 406.25H78.125C34.375 406.25 0 370.3125 0 326.5625V107.8125C0 65.625 34.375 31.25 78.125 31.25H421.875C465.625 31.25 500 65.625 500 107.8125V326.5625C500 370.3125 465.625 406.25 421.875 406.25zM110.9375 351.5625C107.8125 356.25 107.8125 362.5 110.9375 367.1875L173.4375 460.9375C178.125 467.1875 187.5 470.3125 193.75 465.625C193.75 465.625 210.9375 435.9375 248.4375 435.9375C248.4375 435.9375 250 435.9375 250 435.9375C250 435.9375 251.5625000000001 435.9375 251.5625000000001 435.9375C282.8125 435.9375 290.625 456.25 303.1250000000001 465.625C310.9375000000001 470.3125 320.3125000000001 468.75 325 460.9375L387.5 367.1875C390.625 362.5 390.625 356.25 387.5 351.5625S381.25 343.75 375 343.75H250H125C118.75 343.75 114.0625 346.875 110.9375 351.5625zM154.6875 375H250H345.3125L307.8125000000001 432.8125C289.0625 421.875 284.375 406.25 253.125 406.25C253.125 406.25 251.5625 406.25 251.5625 406.25C251.5625 406.25 250 406.25 250 406.25C217.1875 406.25 212.5 423.4375 192.1875 432.8125L154.6875 375zM250 312.5C281.25 312.5 306.25 284.375 306.25 251.5625S281.25 190.625 250 190.625S193.75 218.75 193.75 251.5625S218.75 312.5 250 312.5zM126.5625 100C128.125 96.875 132.8125 93.75 135.9375 93.75L192.1875 106.25L178.125 109.375C171.875 110.9375 168.75 117.1875 168.75 123.4375C170.3125 129.6875 176.5625 137.5 182.8125 135.9375L250 125H250L364.0625 96.875C368.75 96.875 371.875 96.875 373.4375000000001 101.5625C375.0000000000001 106.25 375.0000000000001 109.375 373.4375000000001 112.5L328.125 185.9375C325 192.1875 317.1875 193.75 312.5 189.0625C303.125 182.8125 275 167.1875 251.5625000000001 167.1875C251.5625000000001 167.1875 251.5625000000001 167.1875 250 167.1875C250 167.1875 250 167.1875 248.4375 167.1875C221.875 167.1875 185.9375 189.0625 185.9375 190.625C181.25 193.75 173.4375 192.1875 170.3125 187.5L125 114.0625C125 109.375 125 104.6875 126.5625 100z" />
    <glyph glyph-name="badge-user"
      unicode="&#xE019;"
      horiz-adv-x="500" d=" M387.5 367.1875L325 460.9375C320.3125 468.75 310.9375000000001 470.3125 303.1250000000001 465.625C292.1875 457.8125 282.8125 437.5 253.125 437.5C253.125 437.5 251.5625 437.5 251.5625 437.5C251.5625 437.5 250 437.5 250 437.5C212.5 437.5 195.3125 467.1875 195.3125 467.1875C187.5 471.875 178.125 468.75 175 462.5L112.5 368.75C109.375 364.0625 109.375 357.8125 112.5 353.125S118.75 343.75 125 343.75H250H375C381.25 343.75 385.9375 346.875 389.0625 351.5625S390.625 362.5 387.5 367.1875zM250 375H154.6875L193.75 432.8125C212.5 423.4375 217.1875 406.25 250 406.25C250 406.25 251.5625000000001 406.25 251.5625000000001 406.25C251.5625000000001 406.25 253.1250000000001 406.25 253.1250000000001 406.25C285.9375000000001 406.25 289.0625000000001 423.4375 307.8125000000001 432.8125L345.3125 375H250zM421.875 406.25H393.75H381.25L401.5625 376.5625C407.8125 367.1875 407.8125 354.6875 403.125 345.3125C398.4375 335.9375 387.5 329.6875 375 329.6875H125C114.0625 329.6875 103.125 335.9375 96.875 345.3125C92.1875 354.6875 92.1875 367.1875 98.4375 376.5625L118.75 406.25H106.25H85.9375H78.125C34.375 406.25 0 370.3125 0 328.125V109.375C0 65.625 34.375 31.25 78.125 31.25H421.875C465.625 31.25 500 65.625 500 109.375V328.125C500 370.3125 465.625 406.25 421.875 406.25zM250 296.875C281.25 296.875 306.25 268.75 306.25 235.9375S281.25 175 250 175S193.75 203.125 193.75 235.9375S218.75 296.875 250 296.875zM373.4375 85.9375C371.875 81.25 367.1875 81.25 364.0625 81.25L250 109.375H250L182.8125 120.3125C176.5625 121.875 170.3125 114.0625 168.75 107.8125C167.1875 101.5625 171.875 95.3124999999999 178.125 93.75L190.625 90.625L135.9375 78.125C131.25 78.125 128.125 81.25 126.5625 84.375C125 89.0625 125 93.75 126.5625 96.875L171.875 170.3125C175 175 181.25 178.125 187.5 173.4375C187.5 173.4375 223.4375 150 250 150C250 150 250 150 251.5625000000001 150C251.5625000000001 150 251.5625000000001 150 253.1250000000001 150C275 150 304.6875000000001 165.625 314.0625 171.875C318.7500000000001 175 326.5625000000001 173.4375 329.6875 168.75L375 95.3124999999999C375 93.75 375 90.625 373.4375 85.9375z" />
    <glyph glyph-name="ban"
      unicode="&#xE01A;"
      horiz-adv-x="500" d=" M250 500C112.5 500 0 387.5 0 250S112.5 0 250 0S500 112.5 500 250S387.5 500 250 500zM250 468.75C304.6875 468.75 354.6875 448.4375 393.75 415.625L84.375 106.25C51.5625 145.3125 31.25 195.3125 31.25 250C31.25 370.3125 129.6875 468.75 250 468.75zM250 31.25C195.3125 31.25 145.3125 51.5625 106.25 84.375L415.625 393.75C448.4375 354.6875 468.75 304.6875 468.75 250C468.75 129.6875 370.3125 31.25 250 31.25z" />
    <glyph glyph-name="banner-o"
      unicode="&#xE01B;"
      horiz-adv-x="500" d=" M446.875 250L496.875 318.75C500 323.4375 501.5625 329.6875 498.4375000000001 334.375C495.3125 340.625 490.625 343.75 484.375 343.75H15.625C9.375 343.75 4.6875 340.625 1.5625 335.9375C-1.5625 331.25 0 325 3.125 320.3125L53.125 250L3.125 181.25C0 176.5625 -1.5625 170.3125000000001 1.5625 165.625C4.6875 159.375 9.375 156.25 15.625 156.25H484.375C490.625 156.25 495.3125 159.375 498.4375 164.0625C501.5625 168.75 500 175 496.8749999999999 179.6875L446.875 250zM46.875 187.5L85.9375 240.625C90.625 245.3125 90.625 253.125 85.9375 259.375L46.875 312.5H453.125L414.0625 259.375C409.375 254.6875 409.375 246.875 414.0625 240.625L453.125 187.5H46.875zM346.875 250C346.875 240.625 340.625 234.375 331.25 234.375H168.75C159.375 234.375 153.125 240.625 153.125 250S159.375 265.625 168.75 265.625H332.8125C340.625 265.625 346.875 259.375 346.875 250z" />
    <glyph glyph-name="banner"
      unicode="&#xE01C;"
      horiz-adv-x="500" d=" M446.875 250L496.875 318.75C500 323.4375 501.5625 329.6875 498.4375000000001 334.375C495.3125 340.625 490.625 343.75 484.375 343.75H15.625C9.375 343.75 4.6875 340.625 1.5625 335.9375C-1.5625 331.25 0 325 3.125 320.3125L53.125 250L3.125 181.25C0 176.5625 -1.5625 170.3125000000001 1.5625 165.625C4.6875 159.375 9.375 156.25 15.625 156.25H484.375C490.625 156.25 495.3125 159.375 498.4375 164.0625C501.5625 168.75 500 175 496.8749999999999 179.6875L446.875 250zM331.25 234.375H168.75C159.375 234.375 153.125 240.625 153.125 250S159.375 265.625 168.75 265.625H332.8125C342.1875000000001 265.625 348.4375 259.375 348.4375 250S340.625 234.375 331.25 234.375z" />
    <glyph glyph-name="beginning"
      unicode="&#xE01D;"
      horiz-adv-x="500" d=" M328.125 359.375C332.8125 359.375 335.9375 357.8125 339.0625 354.6875C345.3125 348.4375 345.3125 339.0625 339.0625 332.8125L256.25 250L339.0625 167.1875C345.3125 160.9375 345.3125 151.5625 339.0625 145.3125S323.4375 139.0625000000001 317.1875 145.3125L223.4375 239.0625C217.1875 245.3125 217.1875 254.6875 223.4375 260.9375L317.1875 354.6875C320.3125 357.8125 323.4375 359.375 328.125 359.375zM171.875 359.375C162.5 359.375 156.25 353.125 156.25 343.75V156.25C156.25 146.875 162.5 140.625 171.875 140.625S187.5 146.875 187.5 156.25V343.75C187.5 353.125 181.25 359.375 171.875 359.375z" />
    <glyph glyph-name="bell-o"
      unicode="&#xE01E;"
      horiz-adv-x="500" d=" M470.3125 109.375C470.3125 184.375 451.5625000000001 201.5625 429.6875 215.625C421.875 220.3125 421.875 221.875 421.875 234.375V239.0625C421.875 314.0625 417.1875 450 281.25 467.1875C281.25 467.1875 281.25 468.75 281.25 468.75C281.25 485.9375 267.1875 500 250 500S218.75 485.9375 218.75 468.75C218.75 468.75 218.75 467.1875 218.75 467.1875C82.8125 448.4375 78.125 312.5 78.125 237.5V234.375C78.125 221.875 78.125 220.3125 68.75 215.625C46.875 203.125 29.6875 184.375 29.6875 110.9375C29.6875 107.8125000000001 31.25 101.5625 37.5 93.75C54.6875 76.5625 100 67.1875 171.875 64.0625C178.125 28.125 210.9375 1.5625 248.4375 1.5625C285.9375 1.5625 318.75 28.125 325 65.6250000000001C398.4375 68.7500000000001 445.3125 78.1250000000001 460.9375 95.3125C468.75 100 470.3125 107.8125 470.3125 109.375zM293.75 62.5C287.5000000000001 43.75 270.3125 31.25 250 31.25C229.6875 31.25 212.5 43.75 206.25 62.5C210.9375 62.5 214.0625 62.5 218.75 62.5L281.25 62.5C281.25 62.5 281.25 62.5 281.25 62.5C285.9375 62.5 289.0625 62.5 293.75 62.5zM306.25 93.75C304.6875 93.75 301.5625 93.75 300.0000000000001 93.75C293.7500000000001 93.75 287.5000000000001 93.75 281.2500000000001 93.75H281.2500000000001L218.7500000000001 93.75C212.5000000000001 93.75 206.2500000000001 93.75 200.0000000000001 93.75C198.4375000000001 93.75 196.8750000000001 93.75 195.3125000000001 93.75C95.3125000000001 95.3125 68.7500000000001 109.375 62.5000000000001 114.0625C62.5000000000001 173.4375 75.0000000000001 181.25 85.9375000000001 189.0625C96.875 193.75 109.375 203.125 109.375 234.375V239.0625C109.375 343.75 125 437.5 250 437.5C375 437.5 390.625 343.75 390.625 237.5V234.375C390.625 203.125 403.125 195.3125 414.0625 189.0625C426.5625 181.25 435.9375 173.4375 437.5 114.0625C431.25 109.375 406.25 95.3125 306.25 93.75z" />
    <glyph glyph-name="bell"
      unicode="&#xE01F;"
      horiz-adv-x="500" d=" M484.375 76.5625C476.5625 68.75 467.1875 64.0624999999999 456.25 64.0624999999999H323.4375C323.4375 48.4374999999999 317.1875 24.9999999999999 303.125 10.9375C285.9375 -3.1250000000001 209.375 -4.6874999999999 195.3125 10.9375C181.25 24.9999999999999 173.4375 48.4374999999999 173.4375 64.0624999999999H42.1875C34.375 64.0624999999999 25 68.75 17.1875 76.5625C7.8125 84.375 112.5 407.8125 134.375 434.375C156.25 459.375 184.375 481.25 225 485.9375C221.875 489.0625 221.875 485.9375 221.875 501.5625H278.125C278.125 485.9375 278.125 489.0625 275 487.5C312.5 479.6875 343.75 460.9375 365.625 435.9375L484.375 76.5625zM295.3125 26.5625C304.6875 35.9375 309.375 45.3125 309.375 56.2499999999999C309.375 57.8125 307.8125 60.9375 304.6875 60.9375C289.0625 60.9375 264.0625 40.6249999999999 264.0625 17.1874999999999C264.0625 15.6249999999999 264.0625 15.6249999999999 265.625 15.6249999999999C276.5625 14.0625 287.5 18.75 295.3125 26.5625z" />
    <glyph glyph-name="bold"
      unicode="&#xE020;"
      horiz-adv-x="500" d=" M304.6875 260.9375L304.6875 264.0625C332.8125 268.75 354.6875 281.25 370.3125 301.5625C385.9375 320.3125 393.75 345.3125 393.75 375C393.75 417.1875 381.25 450 354.6875 468.75C328.125 489.0625 284.375 498.4375 225 500L98.4375 500L93.75 0L250 0C298.4375 0 337.5 10.9375 364.0625 35.9375S406.25 95.3125 406.25 140.625C407.8125 206.25 373.4375 246.875 304.6875 260.9375zM150 450L226.5625 450C265.625 450 295.3125 443.75 312.5 431.25C331.25 418.75 339.0625 398.4375 339.0625 370.3125C339.0625 339.0625 329.6875 318.75 314.0625 304.6875C298.4375 292.1875 270.3125 285.9375 234.375 285.9375L148.4375 287.5L150 450zM321.875 71.875C303.1250000000001 56.25 276.5625000000001 48.4375 239.0625 50.0000000000001L145.3125 51.5625000000001L146.875 239.0625000000001L235.9375000000001 237.5000000000001C275 237.5000000000001 303.1250000000001 229.6875000000001 321.875 214.0625000000001S350.0000000000001 176.5625000000001 350.0000000000001 145.3125000000001C350 110.9375 340.625 87.5 321.875 71.875z" />
    <glyph glyph-name="bolt-o"
      unicode="&#xE021;"
      horiz-adv-x="500" d=" M156.25 0C154.6875 0 151.5625 0 150 1.5625C143.75 4.6875 139.0625 12.5 142.1875 20.3125L198.4375 218.75H140.625C135.9375 218.75 131.25 221.875 128.125 225S125 234.375 125 239.0625L203.125 489.0625C206.25 495.3125 212.5 500 218.75 500H328.125C332.8125 500 337.5 496.875 340.625 493.75C343.75 489.0625 345.3125 484.375 342.1875 479.6875L287.5 312.5H359.375C365.625 312.5 370.3125 309.375 373.4375 304.6875C376.5625 300 375 293.75 371.875 289.0625L168.75 7.8125C165.625 1.5625 160.9375 0 156.25 0zM162.5 250H218.75C223.4375 250 228.125 248.4375 231.25 243.75C234.375 240.625 234.375 234.375 234.375 229.6875L196.875 96.875L328.125 281.25H265.625C260.9375 281.25 256.25 284.375 253.125 287.5C250 292.1875 250 296.875 251.5625 301.5625L306.25 468.75H229.6875000000001L162.5 250z" />
    <glyph glyph-name="bolt"
      unicode="&#xE022;"
      horiz-adv-x="500" d=" M156.25 0C154.6875 0 151.5625 0 150 1.5625C143.75 4.6875 139.0625 12.5 142.1875 20.3125L198.4375 218.75H140.625C135.9375 218.75 131.25 221.875 128.125 225S125 234.375 125 239.0625L203.125 489.0625C206.25 495.3125 212.5 500 218.75 500H328.125C332.8125 500 337.5 496.875 340.625 493.75C343.75 489.0625 345.3125 484.375 342.1875 479.6875L287.5 312.5H359.375C365.625 312.5 370.3125 309.375 373.4375 304.6875C376.5625 300 375 293.75 371.875 289.0625L168.75 7.8125C165.625 1.5625 160.9375 0 156.25 0z" />
    <glyph glyph-name="bookmark-o"
      unicode="&#xE023;"
      horiz-adv-x="500" d=" M409.375 0C381.25 0 357.8125 34.375 321.875 90.625C300.0000000000001 123.4375000000001 267.1875 175.0000000000001 250 175.0000000000001C235.9375 175.0000000000001 203.125 125.0000000000001 182.8125 93.7500000000001C150 43.7500000000001 120.3125 1e-13 92.1875 1e-13C71.875 0 62.5 17.1875 62.5 28.125V421.875C62.5 470.3125 89.0625 500 134.375 500H365.625C410.9375 500 437.5 471.875 437.5 421.875V28.125C437.5 15.625 426.5625 0 409.375 0zM92.1875 29.6875C92.1875 29.6875 92.1875 28.125 92.1875 29.6875C106.25 29.6875 139.0625 79.6874999999999 159.375 110.9374999999999C192.1875 160.9375 221.875 204.6875 250 204.6875C282.8125 204.6875 310.9375 159.375 345.3125 107.8125C364.0625 78.125 395.3125 31.25 407.8125 31.25L407.8125 423.4375C407.8125 456.25 393.7500000000001 470.3125 365.6250000000001 470.3125H134.375C104.6875 468.75 93.75 454.6875 93.75 421.875L92.1875 29.6875C93.75 29.6875 92.1875 29.6875 92.1875 29.6875z" />
    <glyph glyph-name="bookmark"
      unicode="&#xE024;"
      horiz-adv-x="500" d=" M437.5 435.9375V14.0625C437.5 14.0625 437.5 -1.5625 421.875 -1.5625C375 -1.5625 301.5625 185.9375 250 185.9375C203.125 185.9375 125 -1.5625 78.125 -1.5625C62.5 -1.5625 62.5 14.0625 62.5 14.0625V435.9375C62.5 484.375 89.0625 501.5625 125 501.5625H250H375C410.9375 501.5625 437.5 484.375 437.5 435.9375z" />
    <glyph glyph-name="books-o"
      unicode="&#xE025;"
      horiz-adv-x="500" d=" M240.625 0C239.0625 0 237.5000000000001 0 235.9375 1.5625C229.6875 4.6875 68.75 59.375 43.75 71.875C1.5625 90.625 0 112.5 0 120.3125V154.6875C0 164.0625 6.25 170.3125 15.625 170.3125S31.25 164.0625 31.25 154.6875V120.3125C31.25 120.3125 31.25 120.3125 31.25 118.75C31.25 115.625 37.5 107.8125 57.8125 98.4374999999999C76.5625 89.0624999999999 189.0625 49.9999999999999 239.0625 32.8124999999999L468.75 156.25V171.875C468.75 181.25 475 187.5 484.375 187.5S500 181.25 500 171.875V146.875C500 140.625 496.875 135.9375 492.1875 132.8125L248.4375 1.5625C245.3125 0 242.1875 0 240.625 0zM246.875 95.3125L490.625 226.5625C495.3125 229.6875 498.4375 234.375 498.4375 240.625V265.625C498.4375 275 492.1875 281.25 482.8125 281.25S467.1875 275 467.1875 265.625V250L237.5 126.5625C187.5 143.7500000000001 73.4375 184.375 56.25 192.1875C37.5 201.5625 31.25 210.9375 31.25 212.5C31.25 212.5 31.25 212.5 31.25 214.0625000000001V248.4375000000001C31.25 257.8125 25 264.0625 15.625 264.0625S0 257.8125 0 248.4375000000001V214.0625000000001C0 206.2500000000001 1.5625 182.8125000000001 43.75 164.0625000000001C68.75 151.5625000000001 228.1250000000001 96.8750000000001 235.9375000000001 93.7500000000001C237.5000000000001 93.7500000000001 239.0625 92.1875000000001 240.6250000000001 92.1875000000001C242.1875 93.75 245.3125 93.75 246.875 95.3125zM246.875 189.0625L490.625 320.3125C495.3125 323.4375 498.4375 328.125 498.4375 334.375V359.375C498.4375 368.75 492.1875 375 482.8125 375S467.1875 368.75 467.1875 359.375V343.75L237.5 220.3125C187.5 237.5000000000001 73.4375 278.125 56.25 285.9375C37.5 295.3125 31.25 304.6875 31.25 306.25C31.25 306.25 31.25 306.25 31.25 307.8125V342.1875C31.25 345.3125 31.25 348.4375 31.25 351.5625L234.375 281.25C239.0625 279.6875 242.1875 279.6875 246.875 282.8125L490.625 407.8125C496.8749999999999 410.9375 500 417.1875 498.4375 423.4375C498.4375 429.6875 493.7499999999999 435.9375 487.5 437.5L259.375 500C256.25 500 253.125 500 250 498.4375L31.25 401.5625C20.3125 396.875 0 379.6875 0 343.75V309.375C0 301.5625 1.5625 278.125 43.75 259.375C68.75 246.875 228.1250000000001 192.1875 235.9375000000001 189.0625C237.5000000000001 189.0625 239.0625 187.5 240.6250000000001 187.5C242.1875 187.5 245.3125 187.5 246.875 189.0625zM257.8125 467.1875L442.1875 417.1875L239.0625 314.0625L54.6875 378.125L257.8125 467.1875z" />
    <glyph glyph-name="books"
      unicode="&#xE026;"
      horiz-adv-x="500" d=" M240.625 0C239.0625 0 237.5000000000001 0 235.9375 1.5625C229.6875 4.6875 68.75 59.375 43.75 71.875C1.5625 90.625 0 112.5 0 120.3125V154.6875C0 164.0625 6.25 170.3125 15.625 170.3125S31.25 164.0625 31.25 154.6875V120.3125C31.25 120.3125 31.25 120.3125 31.25 118.75C31.25 115.625 37.5 107.8125 57.8125 98.4374999999999C76.5625 89.0624999999999 189.0625 49.9999999999999 239.0625 32.8124999999999L468.75 156.25V171.875C468.75 181.25 475 187.5 484.375 187.5S500 181.25 500 171.875V146.875C500 140.625 496.875 135.9375 492.1875 132.8125L248.4375 1.5625C245.3125 0 242.1875 0 240.625 0zM246.875 95.3125L490.625 226.5625C495.3125 229.6875 498.4375 234.375 498.4375 240.625V265.625C498.4375 275 492.1875 281.25 482.8125 281.25S467.1875 275 467.1875 265.625V250L237.5 126.5625C187.5 143.7500000000001 73.4375 184.375 56.25 192.1875C37.5 201.5625 31.25 210.9375 31.25 212.5C31.25 212.5 31.25 212.5 31.25 214.0625000000001V248.4375000000001C31.25 257.8125 25 264.0625 15.625 264.0625S0 257.8125 0 248.4375000000001V214.0625000000001C0 206.2500000000001 1.5625 182.8125000000001 43.75 164.0625000000001C68.75 151.5625000000001 228.1250000000001 96.8750000000001 235.9375000000001 93.7500000000001C237.5000000000001 93.7500000000001 239.0625 92.1875000000001 240.6250000000001 92.1875000000001C242.1875 93.75 245.3125 93.75 246.875 95.3125zM246.875 189.0625L490.625 320.3125C495.3125 323.4375 498.4375 328.125 498.4375 334.375V359.375C498.4375 368.75 492.1875 375 482.8125 375S467.1875 368.75 467.1875 359.375V343.75L237.5 220.3125C187.5 237.5000000000001 73.4375 278.125 56.25 285.9375C37.5 295.3125 31.25 304.6875 31.25 306.25C31.25 306.25 31.25 306.25 31.25 307.8125V342.1875C31.25 345.3125 31.25 348.4375 31.25 351.5625L234.375 281.25C239.0625 279.6875 242.1875 279.6875 246.875 282.8125L490.625 407.8125C496.8749999999999 410.9375 500 417.1875 498.4375 423.4375C498.4375 429.6875 493.7499999999999 435.9375 487.5 437.5L259.375 500C256.25 500 253.125 500 250 498.4375L31.25 401.5625C20.3125 396.875 0 379.6875 0 343.75V309.375C0 301.5625 1.5625 278.125 43.75 259.375C68.75 246.875 228.1250000000001 192.1875 235.9375000000001 189.0625C237.5000000000001 189.0625 239.0625 187.5 240.6250000000001 187.5C242.1875 187.5 245.3125 187.5 246.875 189.0625z" />
    <glyph glyph-name="bottom"
      unicode="&#xE027;"
      horiz-adv-x="500" d=" M140.625 328.125C140.625 332.8125 142.1875 335.9375 145.3125 339.0625C151.5625 345.3125 160.9375 345.3125 167.1875 339.0625L250 256.25L332.8125 339.0625C339.0625 345.3125 348.4375 345.3125 354.6875 339.0625S360.9375 323.4375 354.6875 317.1875L260.9375 223.4375C254.6875 217.1875 245.3125 217.1875 239.0625 223.4375L145.3125 317.1875C142.1875 320.3125 140.625 323.4375 140.625 328.125zM140.625 171.875C140.625 162.5 146.875 156.25 156.25 156.25H343.75C353.125 156.25 359.375 162.5 359.375 171.875S353.125 187.5 343.75 187.5H156.25C146.875 187.5 140.625 181.25 140.625 171.875z" />
    <glyph glyph-name="bouy-o"
      unicode="&#xE028;"
      horiz-adv-x="500" d=" M250 500C112.5 500 0 387.5 0 250S112.5 0 250 0S500 112.5 500 250S387.5 500 250 500zM453.125 328.125L376.5625 273.4375C367.1875 321.875 331.2500000000001 359.375 285.9375 373.4375L334.3750000000001 450C389.0625 428.125 432.8125 384.375 453.125 328.125zM348.4375 250C348.4375 195.3125 304.6875 151.5625 250 151.5625S151.5625 195.3125 151.5625 250C151.5625 304.6875 195.3125 348.4375 250 348.4375S348.4375 304.6875 348.4375 250zM304.6875 460.9375L253.125 379.6875C251.5625 379.6875 251.5625 379.6875 250 379.6875S248.4375 379.6875 246.875 379.6875L195.3125 460.9375C229.6875 470.3125 270.3125 470.3125 304.6875 460.9375zM164.0625 451.5625L212.5 375C165.625 360.9375 131.25 321.875 121.875 275L46.875 328.125C67.1875 384.375 110.9375 428.125 164.0625 451.5625zM31.25 250C31.25 265.625 32.8125 281.25 35.9375 296.875L101.5625 250L35.9375 203.125C32.8125 218.75 31.25 234.375 31.25 250zM46.875 171.875L123.4375 226.5625C132.8125 178.125 168.75 140.625 214.0625 126.5625L165.625 50.0000000000001C110.9375 71.875 67.1875 115.625 46.875 171.875zM195.3125 39.0625L246.875 120.3125C248.4375 120.3125 251.5625000000001 120.3125 253.125 120.3125L304.6875 39.0625C270.3125 29.6875 229.6875 29.6875 195.3125 39.0625zM335.9375 48.4375L287.5 125C334.375 139.0625 368.75 178.125 378.125 225L453.125 171.875C432.8125 115.625 389.0625 71.875 335.9375 48.4375zM396.875 250L462.4999999999999 296.875C465.6249999999999 281.25 467.1875 265.625 467.1875 250S465.6249999999999 218.75 462.4999999999999 203.125L396.875 250z" />
    <glyph glyph-name="bouy"
      unicode="&#xE029;"
      horiz-adv-x="500" d=" M250 500C112.5 500 0 387.5 0 250S112.5 0 250 0S500 112.5 500 250S387.5 500 250 500zM453.125 328.125L376.5625 273.4375C367.1875 321.875 331.2500000000001 359.375 285.9375 373.4375L334.3750000000001 450C389.0625 428.125 432.8125 384.375 453.125 328.125zM250 151.5625C195.3125 151.5625 151.5625 195.3125 151.5625 250C151.5625 304.6875 195.3125 348.4375 250 348.4375S348.4375 304.6875 348.4375 250C348.4375 195.3125 304.6875 151.5625 250 151.5625zM164.0625 451.5625L212.5 375C165.625 360.9375 131.25 321.875 121.875 275L46.875 328.125C67.1875 384.375 110.9375 428.125 164.0625 451.5625zM46.875 171.875L123.4375 226.5625C132.8125 178.125 168.75 140.625 214.0625 126.5625L165.625 50.0000000000001C110.9375 71.875 67.1875 115.625 46.875 171.875zM335.9375 48.4375L287.5 125C334.375 139.0625 368.75 178.125 378.125 225L453.125 171.875C432.8125 115.625 389.0625 71.875 335.9375 48.4375z" />
    <glyph glyph-name="briefcase-o"
      unicode="&#xE02A;"
      horiz-adv-x="500" d=" M417.1875 406.25H362.5C362.5 437.5 334.375 468.75 300 468.75H190.625C156.25 468.75 128.125 437.5 128.125 406.25H73.4375C31.25 406.25 0 371.875 0 328.125V109.375C0 65.625 31.25 31.25 73.4375 31.25H417.1875C460.9375 31.25 500 65.625 500 109.375V328.125C500 371.875 460.9375 406.25 417.1875 406.25zM190.625 437.5H300C317.1875 437.5 331.25 421.875 331.25 406.25H159.375C159.375 421.875 173.4375 437.5 190.625 437.5zM73.4375 375H93.75H128.125H159.375H331.25H362.5H375H417.1875C443.75 375 468.75 354.6875 468.75 328.125V323.4375L296.875 276.5625V281.25C296.875 290.625 290.625 296.875 281.25 296.875H218.75C209.375 296.875 203.125 290.625 203.125 281.25V276.5625L31.25 323.4375V328.125C31.25 354.6875 48.4375 375 73.4375 375zM265.625 265.625V234.375H234.375V265.625H265.625zM417.1875 62.5H73.4375C48.4375 62.5 31.25 82.8125 31.25 109.375V290.625L203.125 243.75V218.75C203.125 209.375 209.375 203.125 218.75 203.125H281.25C290.625 203.125 296.875 209.375 296.875 218.75V243.75L468.75 290.625V109.375C468.75 82.8125 443.75 62.5 417.1875 62.5z" />
    <glyph glyph-name="briefcase"
      unicode="&#xE02B;"
      horiz-adv-x="500" d=" M296.875 195.3125L500 239.0625V62.5C500 28.125 471.875 0 437.5 0H62.5C28.125 0 0 28.125 0 62.5V240.625L203.125 196.875V165.625C203.125 156.25 209.375 142.1875 218.75 142.1875H281.25C290.625 142.1875 296.875 156.25 296.875 165.625V195.3125zM500 328.125V275L295.3125 226.5625C293.75 232.8125 289.0625 234.375 281.25 234.375H218.75C210.9375 234.375 206.25 232.8125 204.6875 226.5625L0 275V328.125C0 362.5 28.125 390.625 62.5 390.625H125V406.25C125 457.8125 167.1875 500 218.75 500H281.25C332.8125 500 375 457.8125 375 406.25V390.625H437.5C471.875 390.625 500 362.5 500 328.125zM187.5 390.625H312.5V406.25C312.5 423.4375 298.4375 437.5 281.25 437.5H218.75C201.5625 437.5 187.5 423.4375 187.5 406.25V390.625z" />
    <glyph glyph-name="browser-expand-o"
      unicode="&#xE02C;"
      horiz-adv-x="500" d=" M453.125 453.125H46.875C20.3124999999993 453.125 0 432.8125 0 406.25V93.75C0 67.1875 20.3124999999993 46.875 46.875 46.875H453.125C479.6875000000007 46.875 500 67.1875 500 93.75V406.25C500 432.8125 479.6875000000007 453.125 453.125 453.125zM468.75 90.625C468.75 81.25 462.5000000000003 78.125 453.125 78.125H46.875C37.4999999999996 78.125 31.25 81.25 31.25 90.625V328.125H468.75V90.625zM468.75 359.375H31.25V406.25C31.25 415.625 37.4999999999996 421.875 46.875 421.875H453.125C462.5000000000003 421.875 468.75 415.625 468.75 406.25V359.375zM171.875 390.625C171.875 381.25 165.6250000000004 375 156.25 375C146.8749999999997 375 140.625 381.25 140.625 390.625C140.625 400 146.8749999999997 406.25 156.25 406.25C164.0625 406.25 171.875 400 171.875 390.625zM125 390.625C125 381.25 118.7500000000004 375 109.375 375C99.9999999999997 375 93.75 381.25 93.75 390.625C93.75 400 99.9999999999997 406.25 109.375 406.25C117.1875 406.25 125 400 125 390.625zM78.125 390.625C78.125 381.25 71.8750000000004 375 62.5 375C53.1249999999996 375 46.875 381.25 46.875 390.625C46.875 400 53.1249999999996 406.25 62.5 406.25C70.3125 406.25 78.125 400 78.125 390.625zM410.9374999999993 390.625C410.9374999999993 381.25 404.6874999999997 375 395.3124999999993 375H245.3124999999989C235.9374999999986 375 229.6874999999989 381.25 229.6874999999989 390.625S235.9374999999986 406.25 245.3124999999989 406.25H395.3124999999993C403.1249999999993 406.25 410.9374999999993 400 410.9374999999993 390.625zM184.3749999999993 137.5C182.8124999999989 139.0625000000001 181.2499999999986 142.1875 181.2499999999986 145.3125L181.2499999999986 218.75C181.2499999999986 221.875 182.8124999999989 225 184.3749999999993 226.5625C185.9374999999997 228.125 187.5 229.6875 189.0624999999986 229.6875C192.1874999999993 231.25 199.9999999999993 232.8125 203.1249999999983 229.6875L276.5624999999989 156.25C279.6874999999997 153.125 278.1249999999993 146.875 276.5624999999989 142.1875C274.9999999999986 139.0625000000001 268.7499999999989 134.375 265.6249999999983 134.375L192.1874999999975 134.375C187.5 134.375 185.9374999999997 134.375 184.3749999999993 137.5zM309.3749999999993 271.875L235.9374999999986 271.875C231.2499999999993 271.875 226.5624999999983 268.75 224.9999999999979 264.0625C223.4374999999975 260.9375 221.8749999999972 253.1250000000001 224.9999999999979 250L298.4374999999986 176.5625C301.5624999999993 173.4375 307.8124999999989 175 312.4999999999983 176.5625C314.0624999999986 176.5625 317.1874999999975 179.6875 317.1874999999975 181.25C318.7499999999979 182.8125000000001 320.3124999999983 185.9375000000001 320.3124999999983 189.0625L320.3124999999983 262.5C320.3124999999983 265.625 318.7499999999979 267.1875 317.1874999999975 270.3125C314.0625000000004 271.875 310.9374999999997 271.875 309.3749999999993 271.875z" />
    <glyph glyph-name="browser-expand"
      unicode="&#xE02D;"
      horiz-adv-x="500" d=" M453.125 453.125H46.875C20.3124999999993 453.125 0 432.8125 0 406.25V93.75C0 67.1875 20.3124999999993 46.875 46.875 46.875H453.125C479.6875000000007 46.875 500 67.1875 500 93.75V406.25C500 432.8125 479.6875000000007 453.125 453.125 453.125zM245.3125000000007 406.25H426.5625000000011C435.9375000000014 406.25 442.1875000000011 400 442.1875000000011 390.625S435.9375000000014 375 426.5625000000011 375H245.3125000000007C235.9375000000004 375 229.6875000000007 381.25 229.6875000000007 390.625S237.5000000000007 406.25 245.3125000000007 406.25zM156.25 406.25C165.6250000000004 406.25 171.875 400 171.875 390.625C171.875 381.25 165.6250000000004 375 156.25 375C146.8749999999997 375 140.625 381.25 140.625 390.625C140.625 398.4375 146.8749999999997 406.25 156.25 406.25zM109.375 406.25C118.7500000000004 406.25 125 400 125 390.625C125 381.25 118.7500000000004 375 109.375 375C99.9999999999997 375 93.75 381.25 93.75 390.625C93.75 398.4375 99.9999999999997 406.25 109.375 406.25zM62.5 406.25C71.8750000000004 406.25 78.125 400 78.125 390.625C78.125 381.25 71.8750000000004 375 62.5 375C53.1249999999996 375 46.875 381.25 46.875 390.625C46.875 398.4375 53.1249999999996 406.25 62.5 406.25zM468.75 90.625C468.75 81.25 462.5000000000003 78.125 453.125 78.125H46.875C37.4999999999996 78.125 31.25 81.25 31.25 90.625V328.125H468.75V90.625zM184.3749999999993 137.5C182.8124999999989 139.0625000000001 181.2499999999986 142.1875 181.2499999999986 145.3125L181.2499999999986 218.75C181.2499999999986 221.875 182.8124999999989 225 184.3749999999993 226.5625C185.9374999999997 228.125 187.5 229.6875 189.0624999999986 229.6875C192.1874999999993 231.25 199.9999999999993 232.8125 203.1249999999983 229.6875L276.5624999999989 156.25C279.6874999999997 153.125 278.1249999999993 146.875 276.5624999999989 142.1875C274.9999999999986 139.0625000000001 268.7499999999989 134.375 265.6249999999983 134.375L192.1874999999975 134.375C187.5 134.375 185.9374999999997 134.375 184.3749999999993 137.5zM309.3749999999993 271.875L235.9374999999986 271.875C231.2499999999993 271.875 226.5624999999983 268.75 224.9999999999979 264.0625C223.4374999999975 260.9375 221.8749999999972 253.1250000000001 224.9999999999979 250L298.4374999999986 176.5625C301.5624999999993 173.4375 307.8124999999989 175 312.4999999999983 176.5625C314.0624999999986 176.5625 317.1874999999975 179.6875 317.1874999999975 181.25C318.7499999999979 182.8125000000001 320.3124999999983 185.9375000000001 320.3124999999983 189.0625L320.3124999999983 262.5C320.3124999999983 265.625 318.7499999999979 267.1875 317.1874999999975 270.3125C314.0625000000004 271.875 310.9374999999997 271.875 309.3749999999993 271.875z" />
    <glyph glyph-name="browser-new-o"
      unicode="&#xE02E;"
      horiz-adv-x="500" d=" M453.125 500H187.5C160.9375 500 140.625 479.6875 140.625 453.125V234.375C140.625 207.8125 160.9375 187.5 187.5 187.5H453.125C479.6875 187.5 500 207.8125 500 234.375V453.125C500 479.6875 479.6875 500 453.125 500zM468.75 231.25C468.75 221.875 462.5 218.75 453.125 218.75H187.5C178.125 218.75 171.875 221.875 171.875 231.25V406.25H468.75V231.25zM468.75 437.5H171.875V453.125C171.875 462.5 178.125 468.75 187.5 468.75H453.125C462.5 468.75 468.75 462.5 468.75 453.125V437.5zM431.25 371.875C432.8125000000001 370.3125 434.375 367.1875 434.375 365.625L434.375 301.5625C434.375 298.4375 432.8125 296.875 431.25 295.3125C429.6875 293.75 428.1250000000001 292.1875 426.5625 290.625C423.4375 289.0625 417.1875 287.5 414.0625 290.625L350 354.6875C346.875 357.8125 348.4375 364.0625 350 367.1875C351.5625 370.3125 356.25 375 359.375 375L425 375C426.5625 375 429.6875 373.4375 431.25 371.875zM359.375 156.25V46.875C359.375 20.3125 339.0625 0 312.5 0H46.875C20.3125 0 0 20.3125 0 46.875V265.625C0 292.1875 20.3125 312.5 46.875 312.5H109.375V281.25H46.875C37.5 281.25 31.25 275 31.25 265.625V250H109.375V218.75H31.25V43.75C31.25 34.375 37.5 31.25 46.875 31.25H312.5C321.875 31.25 328.125 34.375 328.125 43.75V156.25H359.375z" />
    <glyph glyph-name="browser-new"
      unicode="&#xE02F;"
      horiz-adv-x="500" d=" M328.125 43.75C328.125 34.375 321.875 31.25 312.5 31.25H46.875C37.5 31.25 31.25 34.375 31.25 43.75V218.75H109.375V243.75V250V281.25V295.3125V312.5H46.875C20.3125 312.5 0 292.1875 0 265.625V46.875C0 20.3125 20.3125 0 46.875 0H312.5C339.0625 0 359.375 20.3125 359.375 46.875V156.25H328.125V43.75zM453.125 500H187.5C160.9375 500 140.625 479.6875 140.625 453.125V234.375C140.625 207.8125 160.9375 187.5 187.5 187.5H453.125C479.6875 187.5 500 207.8125 500 234.375V453.125C500 479.6875 479.6875 500 453.125 500zM468.75 231.25C468.75 221.875 462.5 218.75 453.125 218.75H187.5C178.125 218.75 171.875 221.875 171.875 231.25V406.25H468.75V231.25zM348.4375 354.6875C345.3125 357.8125 346.875 364.0625 348.4375 367.1875C351.5625 370.3125 356.25 375 359.375 375L425 375C428.125 375 429.6875 373.4375 431.25 371.875S434.375 367.1875 434.375 365.625L434.375 301.5625C434.375 298.4375 432.8125 296.875 431.25 295.3125C429.6875 293.75 428.125 292.1875 426.5625 290.625C423.4375 289.0625 417.1875 287.5 414.0625 290.625L348.4375 354.6875z" />
    <glyph glyph-name="browser-o"
      unicode="&#xE030;"
      horiz-adv-x="500" d=" M453.125 453.125H46.875C20.3125 453.125 0 432.8125 0 406.25V93.75C0 67.1875 20.3125 46.875 46.875 46.875H453.125C479.6875 46.875 500 67.1875 500 93.75V406.25C500 432.8125 479.6875 453.125 453.125 453.125zM468.75 90.625C468.75 81.25 462.5 78.125 453.125 78.125H46.875C37.5 78.125 31.25 81.25 31.25 90.625V328.125H468.75V90.625zM468.75 359.375H31.25V406.25C31.25 415.625 37.5 421.875 46.875 421.875H453.125C462.5 421.875 468.75 415.625 468.75 406.25V359.375zM171.875 390.625C171.875 381.25 165.625 375 156.25 375C148.4375 375 140.625 381.25 140.625 390.625C140.625 400 146.875 406.25 156.25 406.25C164.0625 406.25 171.875 400 171.875 390.625zM125 390.625C125 381.25 118.75 375 109.375 375C101.5625 375 93.75 381.25 93.75 390.625C93.75 400 100 406.25 109.375 406.25C117.1875 406.25 125 400 125 390.625zM78.125 390.625C78.125 381.25 71.875 375 62.5 375C54.6875 375 46.875 381.25 46.875 390.625C46.875 400 53.125 406.25 62.5 406.25C70.3125 406.25 78.125 400 78.125 390.625zM410.9375 390.625C410.9375 381.25 404.6875000000001 375 395.3125 375H245.3125000000001C235.9375000000001 375 229.6875000000001 381.25 229.6875000000001 390.625S235.9375000000001 406.25 245.3125000000001 406.25H395.3125C403.125 406.25 410.9375 400 410.9375 390.625z" />
    <glyph glyph-name="browser"
      unicode="&#xE031;"
      horiz-adv-x="500" d=" M453.125 453.125H46.875C20.3125 453.125 0 432.8125 0 406.25V93.75C0 67.1875 20.3125 46.875 46.875 46.875H453.125C479.6875 46.875 500 67.1875 500 93.75V406.25C500 432.8125 479.6875 453.125 453.125 453.125zM245.3125 406.25H426.5625C435.9375 406.25 442.1875 400 442.1875 390.625S435.9375 375 426.5625 375H245.3125C235.9375 375 229.6875 381.25 229.6875 390.625S237.5 406.25 245.3125 406.25zM156.25 406.25C165.625 406.25 171.875 400 171.875 390.625C171.875 381.25 165.625 375 156.25 375C148.4375 375 140.625 381.25 140.625 390.625C140.625 398.4375 146.875 406.25 156.25 406.25zM109.375 406.25C118.75 406.25 125 400 125 390.625C125 381.25 118.75 375 109.375 375C101.5625 375 93.75 381.25 93.75 390.625C93.75 398.4375 100 406.25 109.375 406.25zM62.5 406.25C71.875 406.25 78.125 400 78.125 390.625C78.125 381.25 71.875 375 62.5 375C54.6875 375 46.875 381.25 46.875 390.625C46.875 398.4375 53.125 406.25 62.5 406.25zM468.75 90.625C468.75 81.25 462.5 78.125 453.125 78.125H46.875C37.5 78.125 31.25 81.25 31.25 90.625V328.125H468.75V90.625z" />
    <glyph glyph-name="buildings-o"
      unicode="&#xE032;"
      horiz-adv-x="500" d=" M453.125 312.5H375V439.0625C375 471.875 350 500 320.3125 500H173.4375C148.4375 500 125 475 125 445.3125V218.75H46.875C21.875 218.75 0 198.4375 0 171.875V0H187.5H218.75H343.75H375H500V271.875C500 296.875 481.25 312.5 453.125 312.5zM187.5 31.25H31.25V171.875C31.25 179.6875 37.5 187.5 46.875 187.5H125H171.875C173.4375 187.5 173.4375 187.5 175 187.5C181.25 184.375 187.5 175 187.5 167.1875V31.25zM343.75 31.25H218.75V93.75H281.25C290.625 93.75 296.875 100 296.875 109.375S290.625 125 281.25 125H218.75V165.625V171.875C218.75 178.125 217.1875 182.8125 215.625 187.5C217.1875 187.5 217.1875 187.5 218.75 187.5H281.25C290.625 187.5 296.875 193.75 296.875 203.125S290.625 218.75 281.25 218.75H218.75C210.9375 218.75 204.6875 212.5 203.125 206.25C195.3125 214.0625 184.375 218.75 171.875 218.75H156.25V445.3125C156.25 457.8125 165.625 468.75 173.4375 468.75H320.3125C332.8125 468.75 343.75 454.6875 343.75 439.0625V312.5V31.25zM468.75 31.25H375V93.75H421.875C431.25 93.75 437.5 100 437.5 109.375S431.25 125 421.875 125H375V187.5H421.875C431.25 187.5 437.5 193.75 437.5 203.125S431.25 218.75 421.875 218.75H375V281.25H453.125C468.75 281.25 468.75 275 468.75 271.875V31.25zM296.875 390.625C296.875 381.25 290.625 375 281.25 375H218.75C209.375 375 203.125 381.25 203.125 390.625S209.375 406.25 218.75 406.25H281.25C290.625 406.25 296.875 400 296.875 390.625zM296.875 296.875C296.875 287.5 290.625 281.25 281.25 281.25H218.75C209.375 281.25 203.125 287.5 203.125 296.875S209.375 312.5 218.75 312.5H281.25C290.625 312.5 296.875 306.25 296.875 296.875zM156.25 109.375C156.25 100 150 93.75 140.625 93.75H78.125C68.75 93.75 62.5 100 62.5 109.375S68.75 125 78.125 125H140.625C150 125 156.25 118.75 156.25 109.375z" />
    <glyph glyph-name="buildings-star-o"
      unicode="&#xE033;"
      horiz-adv-x="500" d=" M156.25 112.5C156.25 103.1249999999999 150 96.875 140.625 96.875H78.125C68.75 96.875 62.5 103.1249999999999 62.5 112.5S68.75 128.125 78.125 128.125H140.625C150 128.125 156.25 120.3125 156.25 112.5zM500 187.5V0H375H343.75H218.75H187.5H0V171.875C0 196.875 20.3125 218.75 46.875 218.75H125V445.3125C125 475 148.4375 500 173.4375 500H320.3125C321.875 500 325 500 326.5625 500L312.5 468.75H173.4375C165.625 468.75 156.25 457.8125 156.25 445.3125V218.75H171.875C184.375 218.75 195.3125 214.0625 203.125 206.25C204.6875 214.0625 210.9375 218.75 218.75 218.75H270.3125H276.5625H281.25C290.625 218.75 296.875 212.5 296.875 203.125S290.625 187.5 281.25 187.5H281.25H264.0625H218.75C217.1875 187.5 217.1875 187.5 215.625 187.5C217.1875 182.8125 218.75 176.5625 218.75 171.875V165.625V125H281.25C290.625 125 296.875 118.75 296.875 109.375S290.625 93.75 281.25 93.75H218.75V31.25H343.75V226.5625L375 243.75L375 243.75V218.75H409.375H421.875H421.875C431.25 218.75 437.5 212.5 437.5 203.125S431.25 187.5 421.875 187.5H421.875H404.6875H375V125H421.875C431.25 125 437.5 118.75 437.5 109.375S431.25 93.75 421.875 93.75H375V31.25H468.75V215.625C468.75 215.625 470.3125 215.625 470.3125 217.1875000000001L500 187.5zM187.5 165.625C187.5 175.0000000000001 181.25 184.375 175 185.9375000000001C173.4375 185.9375000000001 173.4375 185.9375000000001 171.875 185.9375000000001H125H46.875C39.0625 185.9375000000001 31.25 179.6875000000001 31.25 170.3125000000001V29.6875000000001H187.5V165.625zM284.375 426.5625L339.0625 434.375L364.0625 485.9375C367.1875 495.3125 375 500 382.8125 500S398.4375 495.3125 403.125 487.5L428.1250000000001 435.9375L482.8125000000001 428.125C490.6250000000001 426.5625 498.4375000000001 421.875 500 414.0625C503.1250000000001 406.25 500 398.4375 495.3125 392.1875L453.125 348.4375L462.5 290.625C464.0625000000001 282.8125 460.9375 273.4375 453.125 268.75C450 265.625 445.3125 264.0625 440.625 264.0625C437.5 264.0625 432.8125 265.625 429.6875 267.1875L381.25 293.75L332.8125 267.1875C325 262.5 315.625 264.0625 309.375 268.75C303.125 273.4375 298.4375 281.25 300 290.625L312.5 348.4375L271.875 390.625C265.625 396.875 264.0625 404.6875 267.1875 412.5C268.75 420.3125 276.5625 425 284.375 426.5625zM306.25 398.4375L339.0625000000001 365.625C343.75 360.9375 345.3125 356.25 343.75 351.5625L335.9375 304.6875L375 326.5625C379.6875 329.6875 385.9375 329.6875 390.625 326.5625L429.6875 304.6875L421.875 351.5625C420.3125 356.25 421.875 360.9375 426.5625 365.625L459.3750000000001 398.4375L414.0625 406.25C409.375 407.8125 404.6875 410.9375 401.5625 415.625L381.25 457.8125L360.9375 415.625C360.9375 409.375 356.25 406.25 351.5625 406.25L306.25 398.4375zM251.5625000000001 312.5L251.5625000000001 312.5H239.0625H218.75C209.375 312.5 203.125 306.25 203.125 296.875S209.375 281.25 218.75 281.25H232.8125H243.75H250C259.375 281.25 265.625 287.5 265.625 296.875S259.375 312.5 251.5625000000001 312.5z" />
    <glyph glyph-name="buildings-star"
      unicode="&#xE034;"
      horiz-adv-x="500" d=" M267.1875 412.5C264.0625000000001 404.6875 267.1875 395.3125 271.8750000000001 390.625L312.5 348.4375L303.125 290.625C301.5625 282.8125 304.6875 273.4375 312.5 268.75C318.75 264.0625 328.125 264.0625 335.9375 267.1875L384.375 293.75L432.8125000000001 267.1875C435.9375000000001 265.625 439.0625 264.0625 443.7500000000001 264.0625C448.4375000000001 264.0625 453.1250000000001 265.625 456.2500000000001 268.7500000000001C462.5 273.4375000000001 467.1875000000001 282.8125000000001 465.6250000000001 290.6250000000001L453.125 348.4375L493.75 390.625C500 396.875 501.5625 404.6875 498.4375000000001 412.5C495.3125000000001 420.3125 489.0625 426.5625 481.25 426.5625L426.5625 434.375L401.5625 485.9375C398.4375 495.3125 390.625 500 382.8125 500S367.1875 495.3125 362.5 487.5L337.5 435.9375L282.8125 428.125C276.5625 425 268.75 420.3125 267.1875 412.5zM471.875 243.75C462.4999999999999 237.5000000000001 453.125 234.375 440.625 234.375C431.25 234.375 421.875 235.9375 414.0625 240.625L381.25 259.375L348.4375 240.625C331.25 231.25 307.8125 231.25 292.1875 243.75C279.6875 253.125 271.875 265.625 270.3125 281.25H218.75C209.375 281.25 203.125 287.5 203.125 296.875S209.375 312.5 218.75 312.5H273.4375L278.125 339.0625L250 368.75C248.4375 370.3125 245.3125 373.4375 243.75 375H218.75C209.375 375 203.125 381.25 203.125 390.625S209.375 406.25 218.75 406.25H234.375C234.375 410.9375 235.9375 417.1875 237.5 421.875C243.75 440.625 259.375 454.6875 279.6875 457.8125L317.1875 464.0625L332.8125 498.4375C329.6875 498.4375 325 500 320.3125 500H173.4375C148.4375 500 125 475 125 445.3125V218.75H46.875C21.875 218.75 0 198.4375 0 171.875V0H187.5H218.75H343.75H375H500V271.875C500 279.6875 498.4375 285.9375 493.75 292.1875C496.875 273.4375 487.5 254.6875 471.875 243.75zM140.625 93.75H78.125C68.75 93.75 62.5 100 62.5 109.375S68.75 125 78.125 125H140.625C150 125 156.25 118.75 156.25 109.375S150 93.75 140.625 93.75zM281.25 93.75H218.75V125H281.25C290.625 125 296.875 118.75 296.875 109.375S290.625 93.75 281.25 93.75zM281.25 187.5H218.75C217.1875 187.5 217.1875 187.5 215.625 187.5H215.625L214.0625 189.0625C212.5 196.875 203.125 203.125 203.125 204.6875V207.8125C203.125 214.0625 210.9375 218.75 218.75 218.75H281.25C290.625 218.75 296.875 212.5 296.875 203.125S290.625 187.5 281.25 187.5zM421.875 93.75H375V125H421.875C431.25 125 437.5 118.75 437.5 109.375S431.25 93.75 421.875 93.75zM421.875 187.5H375V218.75H421.875C431.25 218.75 437.5 212.5 437.5 203.125S431.25 187.5 421.875 187.5z" />
    <glyph glyph-name="buildings"
      unicode="&#xE035;"
      horiz-adv-x="500" d=" M453.125 312.5H375V439.0625C375 471.875 350 500 320.3125 500H173.4375C148.4375 500 125 475 125 445.3125V218.75H46.875C21.875 218.75 0 198.4375 0 171.875V0H187.5H218.75H343.75H375H500V271.875C500 296.875 481.25 312.5 453.125 312.5zM140.625 93.75H78.125C68.75 93.75 62.5 100 62.5 109.375S68.75 125 78.125 125H140.625C150 125 156.25 118.75 156.25 109.375S150 93.75 140.625 93.75zM281.25 93.75H218.75V125H281.25C290.625 125 296.875 118.75 296.875 109.375S290.625 93.75 281.25 93.75zM281.25 187.5H218.75C217.1875 187.5 217.1875 187.5 215.625 187.5H215.625L214.0625 189.0625C212.5 196.875 203.125 203.125 203.125 204.6875V207.8125C203.125 214.0625 210.9375 218.75 218.75 218.75H281.25C290.625 218.75 296.875 212.5 296.875 203.125S290.625 187.5 281.25 187.5zM281.25 281.25H218.75C209.375 281.25 203.125 287.5 203.125 296.875S209.375 312.5 218.75 312.5H281.25C290.625 312.5 296.875 306.25 296.875 296.875S290.625 281.25 281.25 281.25zM281.25 375H218.75C209.375 375 203.125 381.25 203.125 390.625S209.375 406.25 218.75 406.25H281.25C290.625 406.25 296.875 400 296.875 390.625S290.625 375 281.25 375zM421.875 93.75H375V125H421.875C431.25 125 437.5 118.75 437.5 109.375S431.25 93.75 421.875 93.75zM421.875 187.5H375V218.75H421.875C431.25 218.75 437.5 212.5 437.5 203.125S431.25 187.5 421.875 187.5z" />
    <glyph glyph-name="bulb-o"
      unicode="&#xE036;"
      horiz-adv-x="500" d=" M207.8125 93.75C204.6875 93.75 201.5625 95.3125 198.4375 96.875C195.3125 100 192.1875 104.6875 192.1875 109.375C192.1875 151.5625 170.3125 181.25 145.3125 215.625C137.5 226.5625 129.6875 237.5 121.875 250L120.3125 253.125C109.375 270.3125 101.5625 287.5 98.4375 307.8125L98.4375 310.9375C98.4375 315.625 96.875 318.75 96.875 323.4375C93.75 328.125 93.75 334.375 93.75 339.0625C93.75 428.125 164.0625 500 250 500S406.25 428.125 406.25 339.0625C406.25 332.8125 406.25 326.5625 404.6875 320.3125C404.6875 315.625 403.125 312.5 403.125 309.375L403.125 306.25C400 287.5 392.1875 268.75 381.25 253.1250000000001C381.25 253.1250000000001 381.25 253.1250000000001 381.25 253.1250000000001L379.6875 250C367.1875 232.8125 356.25 218.75 345.3125 207.8125C323.4375000000001 184.375 307.8125000000001 168.75 307.8125000000001 131.25C307.8125000000001 123.4375 303.1250000000001 117.1875 295.3125000000001 115.625L210.9375 93.75C210.9375 93.75 209.375 93.75 207.8125 93.75zM250 468.75C181.25 468.75 125 410.9375 125 339.0625C125 334.375 125 328.125 126.5625 323.4375C126.5625 320.3125 128.125 317.1875 128.125 314.0625L128.125 310.9375C131.25 295.3125 137.5 281.25 145.3125 267.1875L146.875 265.625C154.6875 253.1250000000001 162.5 243.75 170.3125 232.8125000000001C193.75 201.5625000000001 217.1875 170.3125000000001 221.875 128.1250000000001L276.5625 142.1875C279.6875 182.8125000000001 300 204.6875 321.875 226.5625C332.8125 237.5 343.75 250 353.125 264.0625L354.6875 265.625C364.0625 279.6875 368.75 293.75 371.875 309.375L371.875 312.5C371.875 315.625 373.4375000000001 318.75 373.4375000000001 321.875C373.4375000000001 326.5625 375.0000000000001 332.8125 375.0000000000001 337.5C375 410.9375 318.75 468.75 250 468.75zM221.875 0L284.375 15.625C292.1875 17.1875 298.4375 26.5625 295.3125 34.375C293.75 42.1875 284.375 48.4374999999999 276.5625 45.3125L214.0625 29.6875C206.25 28.1249999999999 200 18.75 203.125 10.9375C204.6875 3.125 210.9375 -1.5625 218.75 -1.5625C220.3125 0 221.875 0 221.875 0zM221.875 46.875L284.375 62.5C292.1875 64.0625 298.4375 73.4375 295.3125 81.25C293.75 89.0625 284.375 95.3124999999999 276.5625 92.1875L214.0625 76.5625C206.25 74.9999999999999 200 65.625 203.125 57.8125C204.6875 50 210.9375 45.3125 218.75 45.3125C220.3125 46.875 221.875 46.875 221.875 46.875z" />
    <glyph glyph-name="bulb"
      unicode="&#xE037;"
      horiz-adv-x="500" d=" M207.8125 93.75C204.6875 93.75 201.5625 95.3125 198.4375 96.875C195.3125 100 192.1875 104.6875 192.1875 109.375C192.1875 151.5625 170.3125 181.25 145.3125 215.625C137.5 226.5625 129.6875 237.5 121.875 250L120.3125 253.125C109.375 270.3125 101.5625 287.5 98.4375 307.8125L98.4375 310.9375C98.4375 315.625 96.875 318.75 96.875 323.4375C93.75 328.125 93.75 334.375 93.75 339.0625C93.75 428.125 164.0625 500 250 500S406.25 428.125 406.25 339.0625C406.25 332.8125 406.25 326.5625 404.6875 320.3125C404.6875 315.625 403.125 312.5 403.125 309.375L403.125 306.25C400 287.5 392.1875 268.75 381.25 253.1250000000001C381.25 253.1250000000001 381.25 253.1250000000001 381.25 253.1250000000001L379.6875 250C367.1875 232.8125 356.25 218.75 345.3125 207.8125C323.4375000000001 184.375 307.8125000000001 168.75 307.8125000000001 131.25C307.8125000000001 123.4375 303.1250000000001 117.1875 295.3125000000001 115.625L210.9375 93.75C210.9375 93.75 209.375 93.75 207.8125 93.75zM221.875 0L284.375 15.625C292.1875 17.1875 298.4375 26.5625 295.3125 34.375C293.75 42.1875 284.375 48.4374999999999 276.5625 45.3125L214.0625 29.6875C206.25 28.1249999999999 200 18.75 203.125 10.9375C204.6875 3.125 210.9375 -1.5625 218.75 -1.5625C220.3125 0 221.875 0 221.875 0zM221.875 46.875L284.375 62.5C292.1875 64.0625 298.4375 73.4375 295.3125 81.25C293.75 89.0625 284.375 95.3124999999999 276.5625 92.1875L214.0625 76.5625C206.25 74.9999999999999 200 65.625 203.125 57.8125C204.6875 50 210.9375 45.3125 218.75 45.3125C220.3125 46.875 221.875 46.875 221.875 46.875z" />
    <glyph glyph-name="calculator-o"
      unicode="&#xE038;"
      horiz-adv-x="500" d=" M390.625 0H109.375C65.625 0 31.25 34.375 31.25 78.125V421.875C31.25 465.625 65.625 500 109.375 500H390.625C434.375 500 468.75 465.625 468.75 421.875V78.125C468.75 34.375 434.375 0 390.625 0zM109.375 468.75C82.8125 468.75 62.5 448.4375 62.5 421.875V78.125C62.5 51.5625 82.8125 31.25 109.375 31.25H390.625C417.1875 31.25 437.5 51.5625 437.5 78.125V421.875C437.5 448.4375 417.1875 468.75 390.625 468.75H109.375zM390.625 343.75H109.375C100 343.75 93.75 350 93.75 359.375V421.875C93.75 431.25 100 437.5 109.375 437.5H390.625C400 437.5 406.25 431.25 406.25 421.875V359.375C406.25 350 400 343.75 390.625 343.75zM125 375H375V406.25H125V375zM171.875 265.625V296.875C171.875 306.25 165.625 312.5 156.25 312.5H125C115.625 312.5 109.375 306.25 109.375 296.875V265.625C109.375 256.25 115.625 250 125 250H156.25C165.625 250 171.875 256.25 171.875 265.625zM171.875 171.875V203.125C171.875 212.5 165.625 218.75 156.25 218.75H125C115.625 218.75 109.375 212.5 109.375 203.125V171.875C109.375 162.5 115.625 156.25 125 156.25H156.25C165.625 156.25 171.875 162.5 171.875 171.875zM171.875 78.125V109.375C171.875 118.75 165.625 125 156.25 125H125C115.625 125 109.375 118.75 109.375 109.375V78.125C109.375 68.75 115.625 62.5 125 62.5H156.25C165.625 62.5 171.875 68.75 171.875 78.125zM281.25 265.625V296.875C281.25 306.25 275 312.5 265.625 312.5H234.375C225 312.5 218.75 306.25 218.75 296.875V265.625C218.75 256.25 225 250 234.375 250H265.625C275 250 281.25 256.25 281.25 265.625zM281.25 171.875V203.125C281.25 212.5 275 218.75 265.625 218.75H234.375C225 218.75 218.75 212.5 218.75 203.125V171.875C218.75 162.5 225 156.25 234.375 156.25H265.625C275 156.25 281.25 162.5 281.25 171.875zM281.25 78.125V109.375C281.25 118.75 275 125 265.625 125H234.375C225 125 218.75 118.75 218.75 109.375V78.125C218.75 68.75 225 62.5 234.375 62.5H265.625C275 62.5 281.25 68.75 281.25 78.125zM390.625 265.625V296.875C390.625 306.25 384.375 312.5 375 312.5H343.75C334.375 312.5 328.125 306.25 328.125 296.875V265.625C328.125 256.25 334.375 250 343.75 250H375C384.375 250 390.625 256.25 390.625 265.625zM390.625 78.125V203.125C390.625 212.5 384.375 218.75 375 218.75H343.75C334.375 218.75 328.125 212.5 328.125 203.125V78.125C328.125 68.75 334.375 62.5 343.75 62.5H375C384.375 62.5 390.625 68.75 390.625 78.125z" />
    <glyph glyph-name="calculator-ticket-o"
      unicode="&#xE039;"
      horiz-adv-x="500" d=" M156.25 212.4999999999986L162.4999999999997 218.75H187.5C196.8750000000004 218.75 203.125 212.4999999999986 203.125 203.125V171.875C203.125 162.5000000000014 196.8750000000004 156.25 187.5 156.25H156.25C146.8749999999997 156.25 140.625 162.5000000000014 140.625 171.875V200.0000000000029C146.8749999999997 203.125 151.5625000000007 207.8125000000029 156.25 212.4999999999986zM437.5 359.375V421.875C437.5 431.2499999999986 431.2500000000004 437.5 421.875 437.5H296.875C304.6875 428.1250000000014 310.9374999999997 417.1874999999972 312.5 406.25H407.8125000000004V375H309.3750000000011C304.6875000000018 364.0625000000029 298.4375000000004 353.1249999999986 289.0625000000018 343.75H423.4375000000022C431.2500000000004 343.75 437.5 350.0000000000014 437.5 359.375zM421.875 296.875C421.875 306.2499999999986 415.6250000000004 312.5 406.25 312.5H375C365.6249999999997 312.5 359.375 306.2499999999986 359.375 296.875V265.625C359.375 256.2500000000014 365.6249999999997 250 375 250H406.25C415.6250000000004 250 421.875 256.2500000000014 421.875 265.625V296.875zM156.25 62.5H187.5C196.8750000000004 62.5 203.125 68.7500000000014 203.125 78.125V109.375C203.125 118.7499999999986 196.8750000000004 125 187.5 125H156.25C146.8749999999997 125 140.625 118.7499999999986 140.625 109.375V78.125C140.625 68.7500000000014 146.8749999999997 62.5 156.25 62.5zM406.25 218.75H375C365.6249999999997 218.75 359.375 212.4999999999986 359.375 203.125V78.125C359.375 68.7500000000014 365.6249999999997 62.5 375 62.5H406.25C415.6250000000004 62.5 421.875 68.7500000000014 421.875 78.125V203.125C421.875 212.4999999999986 415.6250000000004 218.75 406.25 218.75zM421.875 500H234.375L253.1250000000007 481.2500000000028L253.1250000000007 481.2500000000028L265.625 468.75H421.875C448.4375000000007 468.75 468.75 448.4374999999972 468.75 421.875V78.125C468.75 51.5625000000028 448.4375000000007 31.25 421.875 31.25H140.625C114.0624999999993 31.25 93.75 51.5625000000028 93.75 78.125V189.0624999999986C82.8124999999993 190.6249999999972 71.8750000000004 195.3125 62.5 204.6874999999986V79.6874999999986C62.5 35.9374999999957 96.8750000000007 1.5624999999986 140.625 1.5624999999986H421.875C465.6249999999993 1.5624999999986 500 35.9374999999957 500 79.6874999999986V423.4374999999986C500 465.6250000000028 465.6249999999993 500 421.875 500zM265.625 62.5H296.875C306.2500000000004 62.5 312.5 68.7500000000014 312.5 78.125V109.375C312.5 118.7499999999986 306.2500000000004 125 296.875 125H265.625C256.2499999999997 125 250 118.7499999999986 250 109.375V78.125C250 68.7500000000014 256.2499999999997 62.5 265.625 62.5zM312.5 296.875C312.5 306.2499999999986 306.2500000000004 312.5 296.875 312.5H265.625C256.2499999999997 312.5 250 306.2499999999986 250 296.875V265.625C250 256.2500000000014 256.2499999999997 250 265.625 250H296.875C306.2500000000004 250 312.5 256.2500000000014 312.5 265.625V296.875zM312.5 203.125C312.5 212.4999999999986 306.2500000000004 218.75 296.875 218.75H265.625C256.2499999999997 218.75 250 212.4999999999986 250 203.125V171.875C250 162.5000000000014 256.2499999999997 156.25 265.625 156.25H296.875C306.2500000000004 156.25 312.5 162.5000000000014 312.5 171.875V203.125zM265.625 365.6250000000014L229.6875000000007 329.6874999999986L170.3125000000014 270.3124999999958L134.3750000000021 234.3749999999929C115.6250000000014 215.6249999999957 95.3125000000021 214.0624999999901 81.2500000000025 228.1249999999915L64.0625000000021 245.3124999999901L70.3125000000018 251.5624999999915C79.6875000000021 260.9374999999901 79.6875000000021 278.1249999999887 70.3125000000018 287.4999999999943C60.9375000000014 296.8749999999929 43.7500000000011 296.8749999999929 34.3750000000025 287.4999999999943L28.1250000000028 281.2499999999929L10.9375000000025 298.4374999999915C-4.6874999999975 314.0624999999915 -1.5624999999968 332.8124999999887 17.1875000000021 351.5624999999929L53.1250000000014 387.4999999999958L112.5000000000007 446.8749999999986L148.4375 482.8125000000014C167.1875000000007 501.5624999999986 187.5 503.1250000000043 201.5624999999997 489.0625000000028L218.75 471.8750000000043L212.5000000000004 465.6250000000028C203.125 456.2500000000043 203.125 439.0625000000057 212.5000000000004 429.6875S239.0625000000011 420.3125000000014 248.4374999999997 429.6875L254.6874999999993 435.9375000000014L271.8749999999997 418.7500000000029C285.9374999999993 404.6875000000014 284.3750000000007 384.3749999999986 265.625 365.6250000000014zM140.625 431.2499999999986L128.1250000000007 443.7500000000014L115.6250000000014 431.2499999999986L128.1250000000007 418.7499999999958C131.2500000000014 415.6249999999986 137.5000000000011 415.6249999999986 140.625 418.7499999999958S143.7500000000007 428.1250000000014 140.625 431.2499999999986zM187.5 382.8125L164.0625 406.25C160.9374999999993 409.3749999999972 154.6874999999997 409.3749999999972 151.5625000000007 406.25C148.4375 403.1250000000029 148.4375 396.8750000000014 151.5625000000007 393.7499999999972L175.0000000000007 370.3124999999972C178.1250000000014 367.1875 184.3750000000011 367.1875 187.5 370.3124999999972S192.1874999999993 379.6875000000029 187.5 382.8125zM223.4374999999993 346.8749999999972L210.9375 359.375C207.8124999999993 362.4999999999972 201.5624999999997 362.4999999999972 198.4375000000007 359.375S195.3125 350.0000000000014 198.4375000000007 346.8749999999972L210.9375 334.3749999999943L223.4374999999993 346.8749999999972z" />
    <glyph glyph-name="calculator-ticket"
      unicode="&#xE03A;"
      horiz-adv-x="500" d=" M421.875 500H234.375L253.1250000000007 481.2500000000028V481.2500000000028L293.7500000000011 440.6250000000043C295.3125000000014 439.0625000000057 295.3125000000014 439.0625000000057 296.8750000000018 437.5000000000071H421.8750000000018C431.2500000000022 437.5000000000071 437.5000000000018 431.2500000000057 437.5000000000018 421.8750000000071V359.3750000000071C437.5000000000018 350.0000000000086 431.2500000000022 343.7500000000071 421.8750000000018 343.7500000000071H287.5000000000014C287.5000000000014 343.7500000000071 287.5000000000014 343.7500000000071 287.5000000000014 343.7500000000071L162.5000000000014 218.7500000000071H187.5000000000018C196.8750000000021 218.7500000000071 203.1250000000018 212.5000000000057 203.1250000000018 203.1250000000071V171.8750000000071C203.1250000000018 162.5000000000085 196.8750000000021 156.2500000000071 187.5000000000018 156.2500000000071H156.2500000000018C146.8750000000014 156.2500000000071 140.6250000000018 162.5000000000085 140.6250000000018 171.8750000000071V200.00000000001C128.1250000000025 192.18750000001 115.6250000000014 187.5000000000071 103.1250000000021 187.5000000000071C89.0625000000025 187.5000000000071 75.0000000000028 193.7500000000085 62.5000000000018 203.1250000000071V78.1250000000071C62.5000000000018 34.3750000000043 96.8750000000025 7.1e-12 140.6250000000018 7.1e-12H421.8750000000018C465.6250000000011 7.1e-12 500.0000000000018 34.3750000000043 500.0000000000018 78.1250000000071V421.8750000000071C500 465.6250000000028 465.6249999999993 500 421.875 500zM203.125 78.125C203.125 68.7500000000014 196.8750000000004 62.5 187.5 62.5H156.25C146.8749999999997 62.5 140.625 68.7500000000014 140.625 78.125V109.375C140.625 118.7499999999986 146.8749999999997 125 156.25 125H187.5C196.8750000000004 125 203.125 118.7499999999986 203.125 109.375V78.125zM312.5 78.125C312.5 68.7500000000014 306.2500000000004 62.5 296.875 62.5H265.625C256.2499999999997 62.5 250 68.7500000000014 250 78.125V109.375C250 118.7499999999986 256.2499999999997 125 265.625 125H296.875C306.2500000000004 125 312.5 118.7499999999986 312.5 109.375V78.125zM312.5 171.875C312.5 162.5000000000014 306.2500000000004 156.25 296.875 156.25H265.625C256.2499999999997 156.25 250 162.5000000000014 250 171.875V203.125C250 212.4999999999986 256.2499999999997 218.75 265.625 218.75H296.875C306.2500000000004 218.75 312.5 212.4999999999986 312.5 203.125V171.875zM312.5 265.625C312.5 256.2500000000014 306.2500000000004 250 296.875 250H265.625C256.2499999999997 250 250 256.2500000000014 250 265.625V296.875C250 306.2499999999986 256.2499999999997 312.5 265.625 312.5H296.875C306.2500000000004 312.5 312.5 306.2499999999986 312.5 296.875V265.625zM421.875 78.125C421.875 68.7500000000014 415.6250000000004 62.5 406.25 62.5H375C365.6249999999997 62.5 359.375 68.7500000000014 359.375 78.125V203.125C359.375 212.4999999999986 365.6249999999997 218.75 375 218.75H406.25C415.6250000000004 218.75 421.875 212.4999999999986 421.875 203.125V78.125zM421.875 265.625C421.875 256.2500000000014 415.6250000000004 250 406.25 250H375C365.6249999999997 250 359.375 256.2500000000014 359.375 265.625V296.875C359.375 306.2499999999986 365.6249999999997 312.5 375 312.5H406.25C415.6250000000004 312.5 421.875 306.2499999999986 421.875 296.875V265.625zM271.8749999999997 418.7500000000029L254.6874999999993 435.9375000000014L248.4374999999997 429.6875C239.0624999999993 420.3125000000014 221.8749999999989 420.3125000000014 212.5000000000004 429.6875S203.125 456.2499999999972 212.5000000000004 465.6250000000028L218.75 471.8750000000043L201.5624999999997 489.0625000000028C185.9374999999997 504.6875000000028 167.1874999999989 501.5625000000057 148.4375 482.8125000000014L112.5000000000007 446.8749999999986L53.1250000000014 387.4999999999958L17.1875000000021 351.5624999999929C-1.5624999999986 332.8124999999958 -3.1249999999972 312.4999999999929 10.9375000000025 298.4374999999915L28.1250000000028 281.2499999999929L34.3750000000025 287.4999999999943C43.7500000000028 296.8749999999929 60.9375000000032 296.8749999999929 70.3125000000018 287.4999999999943C79.6875000000021 278.1249999999958 79.6875000000021 260.9374999999972 70.3125000000018 251.5624999999915L64.0625000000021 245.3124999999901L81.2500000000025 228.1249999999915C96.8750000000025 212.4999999999915 115.6250000000032 215.6249999999886 134.3750000000021 234.3749999999929L170.3125000000014 270.3124999999958L229.6875000000007 329.6874999999986L265.625 365.6250000000014C284.3750000000007 384.3749999999986 285.9374999999993 404.6875000000014 271.8749999999997 418.7500000000029zM140.625 418.7500000000029C137.4999999999993 415.6250000000057 131.2499999999997 415.6250000000057 128.1250000000007 418.7500000000029L115.6250000000014 431.2500000000057L128.1250000000007 443.7500000000086L140.625 431.2500000000057C143.7500000000007 428.1250000000014 143.7500000000007 421.875 140.625 418.7500000000029zM187.5 371.8750000000029C184.3749999999993 368.7500000000057 178.1249999999997 368.7500000000057 175.0000000000007 371.8750000000029L151.5625000000007 395.3125000000029C148.4375 398.4375 148.4375 404.6875000000014 151.5625000000007 407.8125000000057C154.6875000000014 410.9375000000029 160.9375000000011 410.9375000000029 164.0625 407.8125000000057L187.5 384.3750000000057C192.1874999999993 379.6875000000029 192.1874999999993 375 187.5 371.8750000000029zM212.5000000000004 335.9375L200.0000000000011 348.4375000000029C196.8750000000004 351.5625 196.8750000000004 357.8125000000014 200.0000000000011 360.9375000000057S209.3750000000014 364.0625000000029 212.5000000000004 360.9375000000057L224.9999999999997 348.4375000000029L212.5000000000004 335.9375z" />
    <glyph glyph-name="calculator"
      unicode="&#xE03B;"
      horiz-adv-x="500" d=" M390.625 500H109.375C65.625 500 31.25 465.625 31.25 421.875V78.125C31.25 34.375 65.625 0 109.375 0H390.625C434.375 0 468.75 34.375 468.75 78.125V421.875C468.75 465.625 434.375 500 390.625 500zM171.875 78.125C171.875 68.75 165.625 62.5 156.25 62.5H125C115.625 62.5 109.375 68.75 109.375 78.125V109.375C109.375 118.75 115.625 125 125 125H156.25C165.625 125 171.875 118.75 171.875 109.375V78.125zM171.875 171.875C171.875 162.5 165.625 156.25 156.25 156.25H125C115.625 156.25 109.375 162.5 109.375 171.875V203.125C109.375 212.5 115.625 218.75 125 218.75H156.25C165.625 218.75 171.875 212.5 171.875 203.125V171.875zM171.875 265.625C171.875 256.25 165.625 250 156.25 250H125C115.625 250 109.375 256.25 109.375 265.625V296.875C109.375 306.25 115.625 312.5 125 312.5H156.25C165.625 312.5 171.875 306.25 171.875 296.875V265.625zM281.25 78.125C281.25 68.75 275 62.5 265.625 62.5H234.375C225 62.5 218.75 68.75 218.75 78.125V109.375C218.75 118.75 225 125 234.375 125H265.625C275 125 281.25 118.75 281.25 109.375V78.125zM281.25 171.875C281.25 162.5 275 156.25 265.625 156.25H234.375C225 156.25 218.75 162.5 218.75 171.875V203.125C218.75 212.5 225 218.75 234.375 218.75H265.625C275 218.75 281.25 212.5 281.25 203.125V171.875zM281.25 265.625C281.25 256.25 275 250 265.625 250H234.375C225 250 218.75 256.25 218.75 265.625V296.875C218.75 306.25 225 312.5 234.375 312.5H265.625C275 312.5 281.25 306.25 281.25 296.875V265.625zM390.625 78.125C390.625 68.75 384.375 62.5 375 62.5H343.75C334.375 62.5 328.125 68.75 328.125 78.125V203.125C328.125 212.5 334.375 218.75 343.75 218.75H375C384.375 218.75 390.625 212.5 390.625 203.125V78.125zM390.625 265.625C390.625 256.25 384.375 250 375 250H343.75C334.375 250 328.125 256.25 328.125 265.625V296.875C328.125 306.25 334.375 312.5 343.75 312.5H375C384.375 312.5 390.625 306.25 390.625 296.875V265.625zM406.25 359.375C406.25 350 400 343.75 390.625 343.75H109.375C100 343.75 93.75 350 93.75 359.375V421.875C93.75 431.25 100 437.5 109.375 437.5H390.625C400 437.5 406.25 431.25 406.25 421.875V359.375z" />
    <glyph glyph-name="calendar-beginning-o"
      unicode="&#xE03C;"
      horiz-adv-x="500" d=" M406.25 451.5625V484.375C406.25 493.75 400 500 390.625 500S375 493.75 375 484.375V453.125H312.5V484.375C312.5 493.75 306.25 500 296.875 500S281.25 493.75 281.25 484.375V453.125H218.75V484.375C218.75 493.75 212.5 500 203.125 500S187.5 493.75 187.5 484.375V453.125H125V484.375C125 493.75 118.75 500 109.375 500S93.75 493.75 93.75 484.375V451.5625C57.8125 443.75 31.25 412.5 31.25 375V78.125C31.25 34.375 65.625 0 109.375 0H390.625C434.375 0 468.75 34.375 468.75 78.125V375C468.75 412.5 442.1875 443.75 406.25 451.5625zM437.5 78.125C437.5 51.5625 417.1875 31.25 390.625 31.25H109.375C82.8125 31.25 62.5 51.5625 62.5 78.125V375C62.5 395.3125 75 412.5 93.75 418.75V390.625C93.75 381.25 100 375 109.375 375S125 381.25 125 390.625V421.875H187.5V390.625C187.5 381.25 193.75 375 203.125 375S218.75 381.25 218.75 390.625V421.875H281.25V390.625C281.25 381.25 287.5 375 296.875 375S312.5 381.25 312.5 390.625V421.875H375V390.625C375 381.25 381.25 375 390.625 375S406.25 381.25 406.25 390.625V418.75C425 412.5 437.5 395.3125 437.5 375V78.125zM312.5 281.25C317.1875 281.25 320.3125 279.6875 323.4375 276.5625C329.6875 270.3125 329.6875 260.9375 323.4375 254.6875L271.875 203.125L323.4375 151.5625C329.6875 145.3125 329.6875 135.9375 323.4375 129.6875S307.8125 123.4375000000001 301.5625 129.6875L239.0625 192.1875C232.8125 198.4375 232.8125 207.8125 239.0625 214.0625L301.5625 276.5625C304.6875 279.6875 307.8125 281.25 312.5 281.25zM187.5 125C196.875 125 203.125 131.25 203.125 140.625V265.625C203.125 275 196.875 281.25 187.5 281.25S171.875 275 171.875 265.625V140.625C171.875 131.25 178.125 125 187.5 125z" />
    <glyph glyph-name="calendar-beginning"
      unicode="&#xE03D;"
      horiz-adv-x="500" d=" M281.25 390.625V453.125V484.375C281.25 493.75 287.5 500 296.875 500S312.5 493.75 312.5 484.375V453.125V390.625C312.5 381.25 306.25 375 296.875 375S281.25 381.25 281.25 390.625zM203.125 375C212.5 375 218.75 381.25 218.75 390.625V453.125V484.375C218.75 493.75 212.5 500 203.125 500S187.5 493.75 187.5 484.375V453.125V390.625C187.5 381.25 193.75 375 203.125 375zM390.625 375C400 375 406.25 381.25 406.25 390.625V451.5625V484.375C406.25 493.75 400 500 390.625 500S375 493.75 375 484.375V453.125V390.625C375 381.25 381.25 375 390.625 375zM109.375 375C118.75 375 125 381.25 125 390.625V453.125V484.375C125 493.75 118.75 500 109.375 500S93.75 493.75 93.75 484.375V451.5625V390.625C93.75 381.25 100 375 109.375 375zM468.75 375V78.125C468.75 34.375 434.375 0 390.625 0H109.375C65.625 0 31.25 34.375 31.25 78.125V375C31.25 406.25 50 434.375 78.125 446.875V409.375V390.625C78.125 373.4375 92.1875 359.375 109.375 359.375S140.625 373.4375 140.625 390.625V421.875V453.125H171.875V421.875V390.625C171.875 373.4375 185.9375 359.375 203.125 359.375S234.375 373.4375 234.375 390.625V421.875V453.125H265.625V421.875V390.625C265.625 373.4375 279.6875 359.375 296.875 359.375S328.125 373.4375 328.125 390.625V421.875V453.125H359.375V421.875V390.625C359.375 373.4375 373.4375 359.375 390.625 359.375S421.875 373.4375 421.875 390.625V409.375V446.875C450 434.375 468.75 406.25 468.75 375zM203.125 250C203.125 259.375 196.875 265.625 187.5 265.625S171.875 259.375 171.875 250V125C171.875 115.625 178.125 109.375 187.5 109.375S203.125 115.625 203.125 125V250zM271.875 187.5L323.4375 239.0625C329.6875 245.3125 329.6875 254.6875 323.4375 260.9375C320.3125 264.0625 317.1875 265.625 312.5 265.625S304.6875 264.0625 301.5625 260.9375L239.0625 198.4375C232.8125 192.1875 232.8125 182.8125 239.0625 176.5625L301.5625 114.0625C307.8125 107.8125000000001 317.1875 107.8125000000001 323.4375 114.0625S329.6875 129.6875 323.4375 135.9375L271.875 187.5z" />
    <glyph glyph-name="calendar-blank-o"
      unicode="&#xE03E;"
      horiz-adv-x="500" d=" M406.25 451.5625V484.375C406.25 493.75 400 500 390.625 500S375 493.75 375 484.375V453.125H312.5V484.375C312.5 493.75 306.25 500 296.875 500S281.25 493.75 281.25 484.375V453.125H218.75V484.375C218.75 493.75 212.5 500 203.125 500S187.5 493.75 187.5 484.375V453.125H125V484.375C125 493.75 118.75 500 109.375 500S93.75 493.75 93.75 484.375V451.5625C57.8125 443.75 31.25 412.5 31.25 375V78.125C31.25 34.375 65.625 0 109.375 0H390.625C434.375 0 468.75 34.375 468.75 78.125V375C468.75 412.5 442.1875 443.75 406.25 451.5625zM437.5 78.125C437.5 51.5625 417.1875 31.25 390.625 31.25H109.375C82.8125 31.25 62.5 51.5625 62.5 78.125V375C62.5 395.3125 75 412.5 93.75 418.75V390.625C93.75 381.25 100 375 109.375 375S125 381.25 125 390.625V421.875H187.5V390.625C187.5 381.25 193.75 375 203.125 375S218.75 381.25 218.75 390.625V421.875H281.25V390.625C281.25 381.25 287.5 375 296.875 375S312.5 381.25 312.5 390.625V421.875H375V390.625C375 381.25 381.25 375 390.625 375S406.25 381.25 406.25 390.625V418.75C425 412.5 437.5 395.3125 437.5 375V78.125z" />
    <glyph glyph-name="calendar-blank"
      unicode="&#xE03F;"
      horiz-adv-x="500" d=" M187.5 390.625V453.125V484.375C187.5 493.75 193.75 500 203.125 500S218.75 493.75 218.75 484.375V453.125V390.625C218.75 381.25 212.5 375 203.125 375S187.5 381.25 187.5 390.625zM390.625 375C400 375 406.25 381.25 406.25 390.625V451.5625V484.375C406.25 493.75 400 500 390.625 500S375 493.75 375 484.375V453.125V390.625C375 381.25 381.25 375 390.625 375zM296.875 375C306.25 375 312.5 381.25 312.5 390.625V453.125V484.375C312.5 493.75 306.25 500 296.875 500S281.25 493.75 281.25 484.375V453.125V390.625C281.25 381.25 287.5 375 296.875 375zM421.875 446.875V409.375V390.625C421.875 373.4375 407.8125 359.375 390.625 359.375S359.375 373.4375 359.375 390.625V421.875V453.125H328.125V421.875V390.625C328.125 373.4375 314.0625 359.375 296.875 359.375S265.625 373.4375 265.625 390.625V421.875V453.125H234.375V421.875V390.625C234.375 373.4375 220.3125 359.375 203.125 359.375S171.875 373.4375 171.875 390.625V421.875V453.125H140.625V421.875V390.625C140.625 373.4375 126.5625 359.375 109.375 359.375S78.125 373.4375 78.125 390.625V409.375V446.875C50 434.375 31.25 406.25 31.25 375V78.125C31.25 34.375 65.625 0 109.375 0H390.625C434.375 0 468.75 34.375 468.75 78.125V375C468.75 406.25 450 434.375 421.875 446.875zM109.375 375C118.75 375 125 381.25 125 390.625V453.125V484.375C125 493.75 118.75 500 109.375 500S93.75 493.75 93.75 484.375V451.5625V390.625C93.75 381.25 100 375 109.375 375z" />
    <glyph glyph-name="calendar-day-mini-o"
      unicode="&#xE040;"
      horiz-adv-x="500" d=" M328.125 390.625H312.5V406.25C312.5 415.625 306.25 421.875 296.875 421.875S281.25 415.625 281.25 406.25V390.625H218.75V406.25C218.75 415.625 212.5 421.875 203.125 421.875S187.5 415.625 187.5 406.25V390.625H171.875C128.125 390.625 93.75 356.25 93.75 312.5V156.25C93.75 112.5 128.125 78.125 171.875 78.125H328.125C371.875 78.125 406.25 112.5 406.25 156.25V312.5C406.25 356.25 371.875 390.625 328.125 390.625zM375 156.25C375 129.6875 354.6875 109.375 328.125 109.375H171.875C145.3125 109.375 125 129.6875 125 156.25V312.5C125 339.0625 145.3125 359.375 171.875 359.375H187.5V343.75C187.5 334.375 193.75 328.125 203.125 328.125S218.75 334.375 218.75 343.75V359.375H281.25V343.75C281.25 334.375 287.5 328.125 296.875 328.125S312.5 334.375 312.5 343.75V359.375H328.125C354.6875 359.375 375 339.0625 375 312.5V156.25zM250 198.4375V176.5625C250 171.875 245.3125 170.3125000000001 242.1875 170.3125000000001H171.875C168.75 170.3125000000001 165.625 171.8750000000001 164.0625 173.4375L157.8125 187.5C156.25 190.625 157.8125 193.75 159.375 195.3125L207.8125 250C210.9375 253.125 212.5 257.8125 210.9375 260.9375C210.9375 260.9375 209.375 264.0625 204.6875 264.0625C201.5625 264.0625 196.875 260.9375 193.75 256.25C192.1875 253.125 187.5 251.5625 182.8125 253.125L165.625 262.5C162.5 264.0625 160.9375 268.75 162.5 273.4375C171.875 290.625 187.5 300 206.25 300C231.25 300 250 281.25 250 259.375C250 246.875 245.3125 234.375 235.9375 225L217.1875 204.6875L243.75 204.6875C246.875 206.25 250 203.125 250 198.4375zM293.75 167.1875C276.5625 167.1875 260.9375 176.5625 251.5625000000001 193.75C250 196.875 250 201.5625 254.6875 204.6875L271.8750000000001 215.625C275 217.1875 279.6875000000001 217.1875 282.8125 212.5C285.9375 207.8125 292.1875000000001 204.6875 295.3125000000001 204.6875C301.5625 204.6875 306.25 210.9375 306.25 215.625C306.25 220.3125 304.6875 223.4375 301.5625 225C295.3125000000001 228.125 285.9375 225 281.25 220.3125C278.125 218.75 275 218.75 273.4375 218.75H260.9375C259.375 218.75 256.25 220.3125 254.6875 221.875C253.125 223.4375 253.125 225 253.125 228.125L262.5 292.1875C262.5 295.3125 265.625 298.4375 270.3125 298.4375H328.125C332.8125 298.4375 328.125 296.875 328.125 292.1875V271.875C328.125 267.1875 331.25 267.1875 328.125 267.1875H293.75L293.75 262.4999999999999C306.25 264.0624999999999 317.1875 259.375 326.5625000000001 253.125C337.5 245.3125 343.7500000000001 231.25 343.7500000000001 215.625C342.1875 192.1875 325 167.1875 293.75 167.1875z" />
    </font>
</defs>
</svg>
