<?xml version="1.0" standalone="no"?> 
<!DOCTYPE svg PUBLIC "-//W3C//DTD SVG 1.1//EN" "http://www.w3.org/Graphics/SVG/1.1/DTD/svg11.dtd" >
<svg xmlns="http://www.w3.org/2000/svg">
<defs>
  <font id="reedsy" horiz-adv-x="500">
    <font-face font-family="reedsy"
      units-per-em="500" ascent="500"
      descent="0" />
    <missing-glyph horiz-adv-x="0" />
    <glyph glyph-name="arrow-down"
      unicode="&#xE001;"
      horiz-adv-x="500" d=" M409.3 162.4C401.9000000000001 169.8 390.9000000000001 169.8 383.6 162.4L269.6 48.4V482.3C269.6 493.3 262.2000000000001 500.7 251.2 500.7C240.2 500.7 232.8 493.3 232.8 482.3V44.8L115.1 162.4C107.7 169.8 96.7 169.8 89.4 162.4C82 155 82 144 89.4 136.7L210.7 15.4C221.7 4.4 236.4 0.7 251.1 0.7S280.5 4.4 287.9 15.4L409.2 136.7C416.6 144.1 416.6 155.1 409.3 162.4L409.3 162.4z" />
    <glyph glyph-name="arrow-left"
      unicode="&#xE002;"
      horiz-adv-x="500" d=" M481.7 269.2H49.5L163 382.8C170.3 390.1 170.3 401.1 163 408.4C155.7 415.7 144.7 415.7 137.4 408.4L16.5 287.5C-5.5 265.5 -5.5 232.6 16.5 210.6L137.4 89.7000000000001C141.1 86.0000000000001 148.4 86.0000000000001 152.1 86.0000000000001C155.8 86.0000000000001 159.4 86.0000000000001 163.1 89.7000000000001C170.4 97.0000000000001 170.4 108.0000000000001 163.1 115.3000000000001L45.8 232.6H481.7C489 232.6 500 239.9000000000001 500 250.9000000000001C500 261.9 492.7 269.2 481.7 269.2L481.7 269.2z" />
    <glyph glyph-name="arrow-right"
      unicode="&#xE003;"
      horiz-adv-x="500" d=" M18.3 230.8H450.5L337 117.2C329.7 109.9 329.7 98.9 337 91.6C344.3 84.3 355.3 84.3 362.6 91.6L483.5 212.5C505.5 234.5 505.5 267.4 483.5 289.4L362.6 410.3C358.9000000000001 414 351.6 414 347.9000000000001 414S340.6 414 336.9000000000001 410.3C329.6 403 329.6 392 336.9000000000001 384.7L454.1 267.5H18.3C11 267.4 0 260.1 0 249.1C0 238.1 7.3 230.8 18.3 230.8L18.3 230.8z" />
    <glyph glyph-name="arrow-up"
      unicode="&#xE004;"
      horiz-adv-x="500" d=" M89.4 338.9C96.8 331.5 107.8 331.5 115.1 338.9L229.1 452.9V19.1C229.1 8.1 236.5000000000001 0.7 247.5000000000001 0.7C258.5 0.7 265.9000000000001 8.1 265.9000000000001 19.1V456.6L383.5 339C390.9 331.6 401.9 331.6 409.2 339S416.6 357.4 409.2 364.7L287.9 486C276.9 497 262.2 500.7 247.5 500.7C232.8 500.7 218.1 497 210.7 486L89.4 364.6C82 357.3 82 346.3 89.4 338.9L89.4 338.9z" />
    <glyph glyph-name="bookmark"
      unicode="&#xE005;"
      horiz-adv-x="500" d=" M377.9 500H122.1C112.5 500 106.1 493.6 106.1 484V36.2C106.1 26.6 109.3 17 115.7 10.6C128.5 -2.2 144.5 -2.2 157.3 4.2L250.1 55.4L342.9 4.2C346.1 1 352.5 1 358.9 1C378.1 1 394.1 17 394.1 36.2V484C393.9 493.6 387.5 500 377.9 500zM362 471.2V413.6H138V471.2C138 471.2 362 471.2 362 471.2zM362 381.6V352.8H138V381.6H362zM358.8 36.2L266 87.4C262.8 90.6 256.4 90.6 250 90.6C243.6 90.6 237.2 87.4 234 84.2L141.2 33L138 36.2V320.9H362V39.4C362 36.2 358.8 36.2 358.8 36.2z" />
    <glyph glyph-name="calendar"
      unicode="&#xE006;"
      horiz-adv-x="500" d=" M421.9 453.1H359.4V468.8C359.4 478.2 353.2 484.4 343.8 484.4S328.2 478.2 328.2 468.8V453.2H171.9V468.8C171.9 478.2 165.7 484.4 156.3 484.4C146.9 484.4 140.7 478.2 140.7 468.8V453.2H78.1C34.4 453.1 0 418.8 0 375V93.7C0 49.9 34.4 15.6 78.1 15.6H421.8C465.6 15.6 499.9 50 499.9 93.7000000000001V375C500 418.8 465.6 453.1 421.9 453.1L421.9 453.1zM31.2 375C31.2 400 53.1 421.9 78.1 421.9H140.6V406.3C140.6 396.9 146.8 390.7000000000001 156.2 390.7000000000001C165.6 390.7000000000001 171.8 396.9000000000001 171.8 406.3V421.9H328.1V406.3C328.1 396.9 334.3 390.7000000000001 343.7000000000001 390.7000000000001C353.1 390.7000000000001 359.3000000000001 396.9000000000001 359.3000000000001 406.3V421.9H421.8000000000001C446.8000000000001 421.9 468.7 400 468.7 375V328.1H31.2L31.2 375L31.2 375zM468.8 93.7C468.8 68.7 446.9000000000001 46.8 421.9000000000001 46.8H78.1C53.1 46.8 31.2 68.7 31.2 93.7V296.9H468.7V93.7z M109.4 93.7C118.8 93.7 125 96.8 131.3 103.1C137.5 109.3 140.7 118.7 140.7 125S137.6 140.6 131.3 146.8999999999999C118.8 159.3999999999999 100.1 159.3999999999999 87.5 146.8999999999999C81.3 140.6999999999999 78.1 134.3999999999999 78.1 125C78.1 118.8 81.2 109.3999999999999 87.5 103.1S100 93.7 109.4 93.7z M109.4 187.5C118.8 187.5 125 190.6 131.3 196.9C137.5 203.1 140.7 212.5 140.7 218.8S137.6 234.4 131.3 240.7C118.8 253.2 100.1 253.2 87.5 240.7C81.3 234.5 78.1 228.2 78.1 218.8C78.1 209.4 81.2 203.1999999999999 87.5 196.9S100 187.5 109.4 187.5z M203.1 93.7C212.5 93.7 218.7 96.8 225 103.1C231.2 109.3 234.4 118.7 234.4 125S231.3 140.6 225 146.8999999999999C212.5 159.3999999999999 193.8 159.3999999999999 181.2 146.8999999999999C175 140.6999999999999 171.8 131.2999999999999 171.8 125S174.9 109.3999999999999 181.2 103.1C187.5 96.9 193.8 93.7 203.1 93.7z M203.1 187.5C212.5 187.5 218.7 190.6 225 196.9C231.2 203.1 234.4 212.5 234.4 218.8S231.3 234.4 225 240.7C212.5 253.2 193.8 253.2 181.2 240.7C175 234.5 171.8 225.0999999999999 171.8 218.8S174.9 203.1999999999999 181.2 196.9C187.5 190.6 193.8 187.5 203.1 187.5z M296.9 93.7C306.3 93.7 312.5 96.8 318.8 103.1C325 109.3 328.2 115.6 328.2 125C328.2 134.3999999999999 325.0999999999999 140.6 318.8 146.8999999999999C306.3 159.3999999999999 287.6 159.3999999999999 275 146.8999999999999C268.8 140.6999999999999 265.6 131.2999999999999 265.6 125S268.7 109.3999999999999 275 103.1C281.2 96.9 287.5 93.7 296.9 93.7z M296.9 187.5C306.3 187.5 312.5 190.6 318.8 196.9C325 203.1 328.2 209.4 328.2 218.8C328.2 225 325.0999999999999 234.4 318.8 240.7C306.3 253.2 287.6 253.2 275 240.7C268.8 234.5 265.6 225.0999999999999 265.6 218.8S268.7 203.1999999999999 275 196.9C281.2 190.6 287.5 187.5 296.9 187.5z M390.6 93.7C400 93.7 406.2000000000001 96.8 412.5 103.1C418.7 109.3 421.9 118.7 421.9 125S418.8 140.6 412.5 146.8999999999999C400 159.3999999999999 381.3 159.3999999999999 368.7 146.8999999999999C362.5 140.6999999999999 359.3 134.3999999999999 359.3 125C359.3 118.8 362.4000000000001 109.3999999999999 368.7 103.1C375 96.9 381.3 93.7 390.6 93.7z M390.6 187.5C400 187.5 406.2000000000001 190.6 412.5 196.9C418.7 203.1 421.9 209.4 421.9 218.8C421.9 225 418.8 234.4 412.5 240.7C400 253.2 381.3 253.2 368.7 240.7C362.5 234.5 359.3 225.0999999999999 359.3 218.8S362.4000000000001 203.1999999999999 368.7 196.9C375 190.6 381.3 187.5 390.6 187.5z" />
    <glyph glyph-name="down"
      unicode="&#xE007;"
      horiz-adv-x="500" d=" M289.3 185.8C266.3 162.8 231.8 162.8 208.8 185.8L32.6 362.1C24.9 369.8 13.4 369.8 5.8 362.1C-1.9 354.4 -1.9 342.9 5.8 335.3L182 159C201.2 143.7 224.1 132.2 251 132.2S300.8 139.9 320 159L496.2 335.2C500 339 500 346.7 500 350.5S500 362 492.3 362C484.6 369.7 473.1 369.7 465.5 362L289.3 185.8L289.3 185.8z" />
    <glyph glyph-name="first"
      unicode="&#xE008;"
      horiz-adv-x="500" d=" M400 500C386.4 500 372.7 500 359.1 490.9L68.2 320.8V477.3C68.2 490.9 59.1 500 45.5 500S22.7 490.9 22.7 477.3V22.8C22.7 9.2 31.8 0.1 45.4 0.1S68.1 9.2 68.1 22.8V183.8L359 13.7C372.6 9.2 386.3 4.6 399.9 4.6C440.8 4.6 477.2 36.4 477.2 81.9V422.7C477.3 463.6 445.5 500 400 500zM431.8 77.3C431.8 50 400 40.9 381.8 50L86.4 222.7C72.8 227.2 68.2 240.9 68.2 250C68.2 259.1 77.3 272.7 86.4 277.3L381.8 450C390.9000000000001 454.5 395.4000000000001 454.5 400 454.5C413.6 454.5 431.8 440.9 431.8 418.1V77.3z" />
    <glyph glyph-name="folder"
      unicode="&#xE009;"
      horiz-adv-x="500" d=" M452.3 375.8H233.6C224.2 375.8 218 382 218 391.4V422.7C218 447.7 196.1 469.6 171.1 469.6H46.1C21.1 469.6 -0.8 447.7 -0.8 422.7V79C-0.8 54 21.1 32.1 46.1 32.1H452.3C477.3 32.1 499.1999999999999 54 499.1999999999999 79V329C499.2 353.9 477.3 375.8 452.3 375.8L452.3 375.8zM468 78.9C468 69.5 461.8 63.3 452.4 63.3H46.1C36.7 63.3 30.5 69.4999999999999 30.5 78.9V422.7C30.5 432.1 36.7 438.3 46.1 438.3H171.1C180.5 438.3 186.7 432.1 186.7 422.7V391.5C186.7 366.5 208.6 344.6 233.6 344.6H452.3C461.6999999999999 344.6 467.9 338.4 467.9 329L468 78.9L468 78.9z" />
    <glyph glyph-name="hamburger"
      unicode="&#xE00A;"
      horiz-adv-x="500" d=" M18.3 404.7H479.8C491.3 404.7 499 412.4 499 423.9S491.3 443.1 479.8 443.1H18.3C6.8 443.2 -0.9 435.5 -0.9 424S6.8 404.7 18.3 404.7z M479.9 270.1H18.3C6.8 270.1 -0.9 262.4 -0.9 250.9S6.8 231.7 18.3 231.7H479.8C491.3 231.7 499 239.4 499 250.9S491.4 270.1 479.9 270.1z M479.9 97H18.3C6.8 97 -0.9 89.3 -0.9 77.8S6.8 58.6 18.3 58.6H479.8C491.3 58.6 499 66.3 499 77.8S491.4 97 479.9 97z" />
    <glyph glyph-name="header"
      unicode="&#xE00B;"
      horiz-adv-x="500" d=" M382.4 500H117.6C76.5 500 44.1 467.6 44.1 426.5V73.6C44.1 32.4 76.5 0.1 117.6 0.1H382.3C423.5 0.1 455.8 32.5 455.8 73.6V426.5C455.9 467.6 423.5 500 382.4 500zM426.5 73.5C426.5 50 405.9 29.4 382.4 29.4H117.6C94.1 29.4 73.5 50 73.5 73.5V426.5C73.5 450 94.1 470.6 117.6 470.6H382.3C405.8 470.6 426.4 450 426.4 426.5L426.5 73.5L426.5 73.5z M338.2 382.4H161.8C153 382.4 147.1 376.5 147.1 367.7000000000001C147.1 358.9 153 353 161.8 353H338.3C347.1 353 353 358.9000000000001 353 367.7000000000001C352.9 376.5 347.1 382.4 338.2 382.4z" />
    <glyph glyph-name="hearth"
      unicode="&#xE00C;"
      horiz-adv-x="500" d=" M463.4 400.4C434.3 432.7 395.5 452.1 350.2 452.1C311.4 452.1 279.1 439.2 250 416.5C220.9 439.1 185.3 452.1 149.8 452.1C107.8 452.1 65.7 432.7 36.6 400.4C-8.7 348.6 -11.9 271 26.9 212.8C107.7 86.7000000000001 211.2 54.3 240.3 47.9C243.5 47.9 246.8 47.9 250 47.9C253.2 47.9 256.5 51.1 259.7 47.9C288.8 54.4 392.3 86.7 473.1 212.8C511.9 274.3 508.7 351.9 463.4 400.4L463.4 400.4zM447.3 232.2C372.9 115.8 279.1 86.7 253.3 80.2H250H246.8C220.9 86.7 127.1 115.8 52.8 232.2C20.5 280.7 23.7 342.2 59.3 381C81.9 406.9 114.3 423 149.8 423C182.1 423 214.5 410.1 237.1 387.4L240.3 384.2C246.8 377.7 256.5 377.7 262.9000000000001 384.2L266.1 387.4C288.8 410.1 317.9 423 350.2 423C385.8 423 418.1 406.8 440.7 381C476.4 342.2 476.4 280.7 447.3 232.2L447.3 232.2z" />
    <glyph glyph-name="last"
      unicode="&#xE00D;"
      horiz-adv-x="500" d=" M100 0C113.6 0 127.3 0 140.9 9.1L431.8 179.2000000000001V22.7C431.8 9.1 440.9 1e-13 454.4999999999999 1e-13C468.1 1e-13 477.1999999999999 9.1000000000001 477.1999999999999 22.7V477.3C477.1999999999999 490.9 468.0999999999999 500 454.4999999999999 500C440.8999999999999 500 431.8 490.9 431.8 477.3V316.3L140.9 486.4C127.3 490.9 113.6 495.5 100 495.5C59.1 495.5 22.7 463.7 22.7 418.2V77.3C22.7 36.4 54.5 0 100 0zM68.2 422.7C68.2 450 100 459.1 118.2 450L413.7 277.3C427.3 272.8 431.9 259.1 431.9 250C431.9 240.9 422.8 227.3 413.7 222.7L118.2 50C109.1 45.5 104.6 45.5 100 45.5C86.4 45.5 68.2 59.1 68.2 81.9V422.7z" />
    <glyph glyph-name="left"
      unicode="&#xE00E;"
      horiz-adv-x="500" d=" M185.8 210.7C162.8 233.7 162.8 268.2 185.8 291.2L362.1 467.4C369.8 475.1 369.8 486.6 362.1 494.2C354.4000000000001 501.9 342.9000000000001 501.9 335.3 494.2L159 318C143.7 298.8 132.2 275.9 132.2 249S139.9 199.2 159 180L335.2 3.8C339 0 346.7 0 350.5 0C354.3 0 362 0 362 7.7C369.7 15.4 369.7 26.9 362 34.5L185.8 210.7L185.8 210.7z" />
    <glyph glyph-name="list"
      unicode="&#xE00F;"
      horiz-adv-x="500" d=" M202 432.7H479.6C491.8 432.7 500 440.9 500 453.1S491.8 473.5 479.6 473.5H202C189.8 473.5 181.6 465.3 181.6 453.1S189.8 432.7 202 432.7z M479.6 269.4H202C189.8 269.4 181.6 261.2000000000001 181.6 249C181.6 236.8 189.8 228.6 202 228.6H479.6C491.8 228.6 500 236.8 500 249.0000000000001C500 261.2 491.8 269.4 479.6 269.4z M479.6 65.3H202C189.8 65.3 181.6 57.1 181.6 44.9S189.8 24.5000000000001 202 24.5000000000001H479.6C491.8 24.5000000000001 500 32.7 500 44.9S491.8 65.3 479.6 65.3z M71.4 489.8L42.9 457.1L34.7 465.3C26.5 473.5 14.3 473.5 6.1 465.3S-2.1 444.9 6.1 436.7L22.4 420.4C30.6 416.3 38.7 412.2 46.9 412.2S63.2 416.3 63.2 424.4L100 461.2C108.2 469.4 108.2 481.6 100 489.8S79.6 498 71.4 489.8z M71.4 285.7L42.8 253L34.6 261.2C26.4 269.4 14.2 269.4 6 261.2C-2.2 253 -2.2 240.8 6 232.6L22.3 216.3C30.5 212.1999999999999 38.6 208.1 46.8 208.1S63.1 212.2 63.1 220.3L99.8 257C108 265.2 108 277.4 99.8 285.5999999999999C91.8 293.9 79.6 293.9 71.4 285.7z M71.4 81.6L42.9 49L34.7 57.2C26.5 65.4 14.3 65.4 6.1 57.2C-2.1 49 -2.1 36.8 6.1 28.6L22.4 12.3C30.6 8.1999999999999 38.7 4.1 46.9 4.1S63.2 8.2 63.2 16.3L99.9 52.9999999999999C108.1 61.1999999999999 108.1 73.3999999999999 99.9 81.6C91.8 89.8 79.6 89.8 71.4 81.6L71.4 81.6z" />
    <glyph glyph-name="magnifier"
      unicode="&#xE010;"
      horiz-adv-x="500" d=" M494.7 29.4L345.5 178.5C374.1 212.6 391.4 256.2 391.4 303.4C391.4 410.2 302.4 499.1 195.7 499.1S0 410.1 0 303.4S89 107.7000000000001 195.7 107.7000000000001C242 107.7000000000001 284.8 124.4 318.6 152.0000000000001L466.1 4.5000000000001C469.7 0.9 473.2 0.9 480.3 0.9C487.4 0.9 491 0.9 494.5 4.5000000000001C501.8 11.6 501.8 22.2 494.7 29.4L494.7 29.4zM195.7 143.2C106.7 143.2 35.6 214.4 35.6 303.3S106.8 463.5 195.7 463.5S355.8 392.3 355.8 303.4S284.7 143.2 195.7 143.2z" />
    <glyph glyph-name="reedsy"
      unicode="&#xE011;"
      horiz-adv-x="500" d=" M440.1 0C428.7000000000001 0 418.6 8.5 415 11.9C393.7 32.1 377.3 52.9 362.9 71.2C351.4 85.9 341.4 98.5 331.4 107.7C320.4 117.8 300.5 116.7 277.4 115.3C239.9 113.1 193.3 110.4 165 159.5C127.7 224.5 44.2 426.1 40.7 434.7L40.5 435.1C39.2 438.8 28 471.3 40.9 489.1C44.7 494.2 52 500.4 65.7 500C77 499.7 87.5 499.6 97.8 499.6C170.5 499.1 218.5 498.8 265.7000000000001 411.7C297.2000000000001 353.6 334.7000000000001 283.3 371.0000000000001 215.3C404.0000000000001 153.5 435.2000000000001 95.1 461.3000000000001 46.8C468.8000000000001 32.9 465.4000000000001 13.6999999999999 453.9000000000001 4.9C449.3 1.3 444.6 0 440.1 0zM299 135C316.4 135 332.2 132.5 344.1 121.6C355.2000000000001 111.4 365.6 98.2000000000001 377.6 82.9C391.6 65.1 407.5 44.9 427.9000000000001 25.6C430.2000000000001 23.4 438.1 16.5 442.4000000000001 19.7C446.2000000000001 22.6 448.0000000000001 31.7 444.7000000000001 37.8000000000001C418.6 86.1000000000001 387.4000000000001 144.5000000000001 354.4000000000001 206.3000000000001C318.1 274.3000000000001 280.6 344.5000000000001 249.1 402.6000000000001C207.2 480 168.3 480.3 97.6 480.7C87.3 480.8 76.6 480.8 65.1 481.2C58.5 481.4 56.8 479 56.1 478C51.1 471 54.3 452.3 58.1 441.6C61.3 433.9 145.1 231.9000000000001 181.4 168.9C203.9 129.8 240.7 132.0000000000001 276.4 134.1C284.1 134.6 291.7 135 299 135zM341.4 28.2C353.1 66.5 328.4 84 320.6 88.5C300.1 100.2 273.9 97.3 259.6 81.8C256.1 78 256.4 72 260.2 68.5C264 65 270 65.3 273.5 69.1C281.7 78 298.6 79.4 311.3 72.2000000000001C318.9000000000001 67.9 330.6 57.1 323.4000000000001 33.7C321.9000000000001 28.7 324.7000000000001 23.5000000000001 329.7000000000001 22.0000000000001C330.6 21.7 331.5000000000001 21.6000000000001 332.4000000000001 21.6000000000001C336.5 21.6 340.2 24.2 341.4 28.2zM146.7 366.1C124.3 366.1 106.1 384.3 106.1 406.7S124.3 447.3 146.7 447.3C169.1 447.3 187.3 429.1 187.3 406.7S169.1 366.1 146.7 366.1zM146.7 428.4C134.7 428.4 124.9 418.6 124.9 406.6S134.7 384.8 146.7 384.8S168.5 394.6 168.5 406.6S158.7 428.4 146.7 428.4zM311.4 149.3C322.7 149.8 331.5 155.2 336 164.4C350.3 193.6 318.2 249.3000000000001 288.7 290.9000000000001C285.7 295.1 279.8 296.1 275.6 293.1C271.4 290.1 270.4 284.2000000000001 273.4 280C316.3 219.5 324.9 184.3 319.1 172.6C318.1 170.6 316.3 168.3 310.6 168C293.2 167.3 265.7 185.4 245.7 202.6C223.5 221.7000000000001 189.8 256.7000000000001 154.8 314.6C152.1 319 146.3 320.5 141.9 317.8C137.5 315.1 136 309.3 138.7 304.9C175 244.9 210.2 208.4 233.4 188.3C262.8 162.9 289.7 149.1 309.6 149.1C310.2 149.3 310.8 149.3 311.4 149.3z" />
    <glyph glyph-name="reverse-h"
      unicode="&#xE012;"
      horiz-adv-x="500" d=" M338.2 495.2C330.8 487.8 330.8 476.8 338.2 469.5L452.2 385.5H18.4C7.4 385.5 0 378.1 0 367.1C0 356.1 7.4 348.7 18.4 348.7H455.9L338.2 261C330.8 253.6 330.8 242.6 338.2 235.3C345.6 227.9000000000001 356.6 227.9000000000001 363.9 235.3L485.2 326.6C496.2 337.6 499.9 352.3 499.9 367S496.2 396.4000000000001 485.2 403.8L364 495.2C356.6 502.5 345.6 502.5 338.2 495.2L338.2 495.2z M161.8 6.2C169.2 13.6 169.2 24.6 161.8 31.9L47.8 115.9H481.6C492.6 115.9 500 123.3 500 134.3C500 145.3 492.6 152.6999999999999 481.6 152.6999999999999H44.1L161.7 240.3C169.1 247.7 169.1 258.7 161.7 266C154.3 273.4 143.3 273.4 136 266L14.7 174.7C3.7 163.7 0 149 0 134.3S3.7 104.9 14.7 97.5L136 6.2C143.4 -1.2 154.4 -1.2 161.8 6.2L161.8 6.2z" />
    <glyph glyph-name="reverse-v"
      unicode="&#xE013;"
      horiz-adv-x="500" d=" M5.5 338.9C12.9 331.5 23.9 331.5 31.2 338.9L115.2 452.9V19.1C115.2 8.1 122.6 0.7 133.6 0.7C144.6 0.7 152 8.1 152 19.1V456.6L239.6 339C247 331.6 258 331.6 265.3 339S272.7 357.4 265.3 364.7L174 486C163 497 148.3 500.7 133.6 500.7S104.2 497 96.8 486L5.5 364.6C-1.8 357.3 -1.8 346.3 5.5 338.9L5.5 338.9z M494.5 162.4C487.1 169.8 476.1 169.8 468.8 162.4L384.8 48.4V482.3C384.8 493.3 377.4000000000001 500.7 366.4000000000001 500.7C355.4000000000001 500.7 348.0000000000001 493.3 348.0000000000001 482.3L348.0000000000001 44.8L260.4000000000001 162.4C253.0000000000001 169.8 242.0000000000001 169.8 234.7000000000001 162.4C227.3000000000001 155 227.3000000000001 144 234.7000000000001 136.7L326 15.4C337 4.4 351.7 0.7 366.4 0.7S395.8 4.4 403.2 15.4L494.5 136.7C501.8 144.1 501.8 155.1 494.5 162.4L494.5 162.4z" />
    <glyph glyph-name="right"
      unicode="&#xE014;"
      horiz-adv-x="500" d=" M314.2 289.3C337.2 266.3 337.2 231.8 314.2 208.8L137.9 32.6C130.2 24.9 130.2 13.4 137.9 5.8C145.6 -1.9 157.1 -1.9 164.7 5.8L341 182C356.3 201.2 367.8 224.1 367.8 251S360.1 300.8 341 320L164.8 496.2C160.9 500 153.3 500 149.4 500C145.6 500 137.9 500 137.9 492.3C130.2 484.6 130.2 473.1 137.9 465.5L314.2 289.3L314.2 289.3z" />
    <glyph glyph-name="slider"
      unicode="&#xE015;"
      horiz-adv-x="500" d=" M18.3 403.8H47.5C56 371.7 85.3 348 120 348S184 371.7 192.5 403.8H479.9C491.4 403.8 499.1 411.5 499.1 423S491.4 442.2 479.9 442.2H192.5C184 474.4 154.7 498.1 120 498.1S56 474.4 47.5 442.3H18.3C6.8 442.3 -0.9 434.6 -0.9 423.1C-0.9 411.5 6.8 403.8 18.3 403.8zM120 458.1C139.3 458.1 155 442.4 155 423.1S139.3 388.1 120 388.1S85 403.8 85 423.1S100.7 458.1 120 458.1z M479.9 269.2H322.5C314 301.3 284.7 325 250 325C215.3 325 186 301.3 177.5 269.2H18.3C6.8 269.2 -0.9 261.5 -0.9 250C-0.9 238.5 6.8 230.8 18.3 230.8H177.5C186 198.7 215.3 175 250 175C284.7 175 314 198.7 322.5 230.8H479.9C491.4 230.8 499.1 238.5 499.1 250C499.1 261.5 491.4 269.2 479.9 269.2zM250 215C230.7 215 215 230.7 215 250S230.7 285 250 285S285 269.3 285 250S269.3 215 250 215z M479.9 96.2H192.5C184 128.3 154.7 152 120 152S56 128.3 47.5 96.2H18.3C6.8 96.2 -0.9 88.5 -0.9 77C-0.9 65.5 6.8 57.8 18.3 57.8H47.5C56 25.7 85.3 2 120 2S184 25.7 192.5 57.8H479.9C491.4 57.8 499.1 65.5 499.1 77C499.1 88.5 491.4 96.2 479.9 96.2zM120 41.9C100.7 41.9 85 57.6 85 76.9S100.7 111.9 120 111.9S155 96.2 155 76.9S139.3 41.9 120 41.9z" />
    <glyph glyph-name="times"
      unicode="&#xE016;"
      horiz-adv-x="500" d=" M281.8 248.9L493.2 460.2C502.3 469.3 502.3 482.9 493.2 492C484.1 501.1 470.5 501.1 461.4 492L250 280.7L38.6 492C29.5 501.1 15.9 501.1 6.8 492S-2.3 469.3 6.8 460.2L218.2 248.8L6.8 37.5C-2.3 28.4 -2.3 14.8 6.8 5.7C11.3 1.2 20.4 1.2 25 1.2S38.6 1.2 38.6 5.7L250 217L461.4 5.6C465.9 1.1 475 1.1 479.6 1.1S493.2 1.1 493.2 5.6C502.3 14.7 502.3 28.3 493.2 37.4L281.8 248.9z" />
    <glyph glyph-name="up"
      unicode="&#xE017;"
      horiz-adv-x="500" d=" M210.7 314.2C233.7 337.2 268.2 337.2 291.2 314.2L467.4 138C475.1 130.3 486.6 130.3 494.2 138S501.9 157.2 494.2 164.8L318 341C298.8 356.3 275.9 367.8 249 367.8S199.2 360.1 180 341L3.8 164.8C0 160.9 0 153.3 0 149.4C0 145.6 0 137.9 7.7 137.9C15.4 130.2 26.9 130.2 34.5 137.9L210.7 314.2L210.7 314.2z" />
    <glyph glyph-name="user"
      unicode="&#xE018;"
      horiz-adv-x="500" d=" M340.5 260.3C361.7 285.7000000000001 375 319.7000000000001 375 357.5C375 436.7 318 500 248.4 500S121.8 436.7 121.8 357.6C121.8 319.6 135.2 285.5 156.5 260C92.4 247.8 42.7 190.7 42.7 123.4V15.8C42.7 6.3 49 -1e-13 58.5 -1e-13S74.3 6.3 74.3 15.8V123.4C74.4 183.5 121.8 231 182 231H191.6C208.8 221.2 227.9 215.2 248.5 215.2C269 215.2 288.2 221.2 305.4 231C305.4 231 305.4 231 305.5 231H315C375.1 231 422.6 183.5 422.6 123.4V15.8C422.6 6.3 428.9000000000001 -1e-13 438.4000000000001 -1e-13C447.9000000000001 -1e-13 454.2 6.3 457.4 15.8V123.4C457.3 191.7 406 249.3 340.5 260.3L340.5 260.3zM153.5 357.6C153.5 417.7 194.6 468.4 248.4 468.4S343.3 417.8 343.3 357.6S302.2 246.8 248.4 246.8S153.5 297.5 153.5 357.6z" />
  </font>
</defs>
</svg>
